<!-- ============================================
     KICKVERSE - BIBLIOTECA DE ICONOS SVG
     ============================================ -->

<!-- Fútbol / Soccer Ball -->
<svg id="icon-soccer" xmlns="http://www.w3.org/2000/svg" viewBox="0 0 24 24" fill="none" stroke="currentColor" stroke-width="2">
    <circle cx="12" cy="12" r="10"/>
    <path d="M12 2 L14 8 L20 8 L15 12 L17 18 L12 14 L7 18 L9 12 L4 8 L10 8 Z"/>
</svg>

<!-- Camiseta / Jersey -->
<svg id="icon-jersey" xmlns="http://www.w3.org/2000/svg" viewBox="0 0 24 24" fill="none" stroke="currentColor" stroke-width="2">
    <path d="M7 4 L4 7 L4 20 L20 20 L20 7 L17 4 L15 6 L12 4 L9 6 Z"/>
    <circle cx="12" cy="4" r="1.5"/>
</svg>

<!-- Carrito / Shopping Cart -->
<svg id="icon-cart" xmlns="http://www.w3.org/2000/svg" viewBox="0 0 24 24" fill="none" stroke="currentColor" stroke-width="2">
    <circle cx="9" cy="21" r="1"/>
    <circle cx="20" cy="21" r="1"/>
    <path d="M1 1h4l2.68 13.39a2 2 0 0 0 2 1.61h9.72a2 2 0 0 0 2-1.61L23 6H6"/>
</svg>

<!-- Check / Verificado -->
<svg id="icon-check" xmlns="http://www.w3.org/2000/svg" viewBox="0 0 24 24" fill="none" stroke="currentColor" stroke-width="2">
    <path d="M20 6L9 17l-5-5"/>
</svg>

<!-- Close / X -->
<svg id="icon-close" xmlns="http://www.w3.org/2000/svg" viewBox="0 0 24 24" fill="none" stroke="currentColor" stroke-width="2">
    <line x1="18" y1="6" x2="6" y2="18"/>
    <line x1="6" y1="6" x2="18" y2="18"/>
</svg>

<!-- Rayo / Lightning -->
<svg id="icon-lightning" xmlns="http://www.w3.org/2000/svg" viewBox="0 0 24 24" fill="currentColor">
    <path d="M13 2L3 14h8l-1 8 10-12h-8z"/>
</svg>

<!-- Regalo / Gift -->
<svg id="icon-gift" xmlns="http://www.w3.org/2000/svg" viewBox="0 0 24 24" fill="none" stroke="currentColor" stroke-width="2">
    <rect x="3" y="8" width="18" height="4"/>
    <rect x="3" y="12" width="18" height="9"/>
    <path d="M12 8V21"/>
    <path d="M7 8c0-2 1-4 3-4s3 2 3 4"/>
    <path d="M17 8c0-2-1-4-3-4s-3 2-3 4"/>
</svg>

<!-- WhatsApp -->
<svg id="icon-whatsapp" xmlns="http://www.w3.org/2000/svg" viewBox="0 0 24 24" fill="currentColor">
    <path d="M17.472 14.382c-.297-.149-1.758-.867-2.03-.967-.273-.099-.471-.148-.67.15-.197.297-.767.966-.94 1.164-.173.199-.347.223-.644.075-.297-.15-1.255-.463-2.39-1.475-.883-.788-1.48-1.761-1.653-2.059-.173-.297-.018-.458.13-.606.134-.133.298-.347.446-.52.149-.174.198-.298.298-.497.099-.198.05-.371-.025-.52-.075-.149-.669-1.612-.916-2.207-.242-.579-.487-.5-.669-.51-.173-.008-.371-.01-.57-.01-.198 0-.52.074-.792.372-.272.297-1.04 1.016-1.04 2.479 0 1.462 1.065 2.875 1.213 3.074.149.198 2.096 3.2 5.077 4.487.709.306 1.262.489 1.694.625.712.227 1.36.195 1.871.118.571-.085 1.758-.719 2.006-1.413.248-.694.248-1.289.173-1.413-.074-.124-.272-.198-.57-.347m-5.421 7.403h-.004a9.87 9.87 0 01-5.031-1.378l-.361-.214-3.741.982.998-3.648-.235-.374a9.86 9.86 0 01-1.51-5.26c.001-5.45 4.436-9.884 9.888-9.884 2.64 0 5.122 1.03 6.988 2.898a9.825 9.825 0 012.893 6.994c-.003 5.45-4.437 9.884-9.885 9.884m8.413-18.297A11.815 11.815 0 0012.05 0C5.495 0 .16 5.335.157 11.892c0 2.096.547 4.142 1.588 5.945L.057 24l6.305-1.654a11.882 11.882 0 005.683 1.448h.005c6.554 0 11.89-5.335 11.893-11.893a11.821 11.821 0 00-3.48-8.413Z"/>
</svg>

<!-- Flecha Derecha / Arrow Right -->
<svg id="icon-arrow-right" xmlns="http://www.w3.org/2000/svg" viewBox="0 0 24 24" fill="none" stroke="currentColor" stroke-width="2">
    <path d="M5 12h14M12 5l7 7-7 7"/>
</svg>

<!-- Flecha Izquierda / Arrow Left -->
<svg id="icon-arrow-left" xmlns="http://www.w3.org/2000/svg" viewBox="0 0 24 24" fill="none" stroke="currentColor" stroke-width="2">
    <path d="M19 12H5M12 19l-7-7 7-7"/>
</svg>

<!-- Trofeo / Trophy -->
<svg id="icon-trophy" xmlns="http://www.w3.org/2000/svg" viewBox="0 0 24 24" fill="none" stroke="currentColor" stroke-width="2">
    <path d="M6 9H4.5a2.5 2.5 0 0 1 0-5H6"/>
    <path d="M18 9h1.5a2.5 2.5 0 0 0 0-5H18"/>
    <path d="M4 22h16"/>
    <path d="M10 14.66V17c0 .55-.47.98-.97 1.21C7.85 18.75 7 20.24 7 22"/>
    <path d="M14 14.66V17c0 .55.47.98.97 1.21C16.15 18.75 17 20.24 17 22"/>
    <path d="M18 2H6v7a6 6 0 0 0 12 0V2Z"/>
</svg>

<!-- Estrella / Star -->
<svg id="icon-star" xmlns="http://www.w3.org/2000/svg" viewBox="0 0 24 24" fill="currentColor">
    <path d="M12 2l3.09 6.26L22 9.27l-5 4.87 1.18 6.88L12 17.77l-6.18 3.25L7 14.14 2 9.27l6.91-1.01L12 2z"/>
</svg>

<!-- Usuario / User -->
<svg id="icon-user" xmlns="http://www.w3.org/2000/svg" viewBox="0 0 24 24" fill="none" stroke="currentColor" stroke-width="2">
    <circle cx="12" cy="8" r="4"/>
    <path d="M6 21v-2a4 4 0 0 1 4-4h4a4 4 0 0 1 4 4v2"/>
</svg>

<!-- Número / Hash -->
<svg id="icon-hash" xmlns="http://www.w3.org/2000/svg" viewBox="0 0 24 24" fill="none" stroke="currentColor" stroke-width="2">
    <line x1="4" y1="9" x2="20" y2="9"/>
    <line x1="4" y1="15" x2="20" y2="15"/>
    <line x1="10" y1="3" x2="8" y2="21"/>
    <line x1="16" y1="3" x2="14" y2="21"/>
</svg>

<!-- Mundo / Globe -->
<svg id="icon-globe" xmlns="http://www.w3.org/2000/svg" viewBox="0 0 24 24" fill="none" stroke="currentColor" stroke-width="2">
    <circle cx="12" cy="12" r="10"/>
    <path d="M2 12h20"/>
    <path d="M12 2a15.3 15.3 0 0 1 4 10 15.3 15.3 0 0 1-4 10 15.3 15.3 0 0 1-4-10 15.3 15.3 0 0 1 4-10z"/>
</svg>

<!-- Bandera / Flag -->
<svg id="icon-flag" xmlns="http://www.w3.org/2000/svg" viewBox="0 0 24 24" fill="none" stroke="currentColor" stroke-width="2">
    <path d="M4 15s1-1 4-1 5 2 8 2 4-1 4-1V3s-1 1-4 1-5-2-8-2-4 1-4 1z"/>
    <line x1="4" y1="22" x2="4" y2="15"/>
</svg>

<!-- Paleta de colores / Paint -->
<svg id="icon-paint" xmlns="http://www.w3.org/2000/svg" viewBox="0 0 24 24" fill="none" stroke="currentColor" stroke-width="2">
    <circle cx="13.5" cy="6.5" r=".5"/>
    <circle cx="17.5" cy="10.5" r=".5"/>
    <circle cx="8.5" cy="7.5" r=".5"/>
    <circle cx="6.5" cy="12.5" r=".5"/>
    <path d="M12 2C6.5 2 2 6.5 2 12s4.5 10 10 10c.926 0 1.648-.746 1.648-1.688 0-.437-.18-.835-.437-1.125-.29-.289-.438-.652-.438-1.125a1.64 1.64 0 0 1 1.668-1.668h1.996c3.051 0 5.555-2.503 5.555-5.554C21.965 6.012 17.461 2 12 2z"/>
</svg>

<!-- Dinero / Money -->
<svg id="icon-money" xmlns="http://www.w3.org/2000/svg" viewBox="0 0 24 24" fill="none" stroke="currentColor" stroke-width="2">
    <rect x="2" y="5" width="20" height="14" rx="2"/>
    <circle cx="12" cy="12" r="3"/>
    <path d="M18.5 9.5v-.75"/>
    <path d="M5.5 9.5v-.75"/>
    <path d="M18.5 14.5v.75"/>
    <path d="M5.5 14.5v.75"/>
</svg>

<!-- Etiqueta / Tag -->
<svg id="icon-tag" xmlns="http://www.w3.org/2000/svg" viewBox="0 0 24 24" fill="none" stroke="currentColor" stroke-width="2">
    <path d="M20.59 13.41l-7.17 7.17a2 2 0 0 1-2.83 0L2 12V2h10l8.59 8.59a2 2 0 0 1 0 2.82z"/>
    <circle cx="7" cy="7" r="1"/>
</svg>

<!-- Más / Plus -->
<svg id="icon-plus" xmlns="http://www.w3.org/2000/svg" viewBox="0 0 24 24" fill="none" stroke="currentColor" stroke-width="2">
    <line x1="12" y1="5" x2="12" y2="19"/>
    <line x1="5" y1="12" x2="19" y2="12"/>
</svg>

<!-- Menos / Minus -->
<svg id="icon-minus" xmlns="http://www.w3.org/2000/svg" viewBox="0 0 24 24" fill="none" stroke="currentColor" stroke-width="2">
    <line x1="5" y1="12" x2="19" y2="12"/>
</svg>

<!-- Papelera / Trash -->
<svg id="icon-trash" xmlns="http://www.w3.org/2000/svg" viewBox="0 0 24 24" fill="none" stroke="currentColor" stroke-width="2">
    <polyline points="3 6 5 6 21 6"/>
    <path d="M19 6v14a2 2 0 0 1-2 2H7a2 2 0 0 1-2-2V6m3 0V4a2 2 0 0 1 2-2h4a2 2 0 0 1 2 2v2"/>
</svg>
