<svg xmlns="http://www.w3.org/2000/svg" xmlns:xlink="http://www.w3.org/1999/xlink" width="2560" zoomAndPan="magnify" viewBox="0 0 1920 779.249976" height="1039" preserveAspectRatio="xMidYMid meet" version="1.0"><defs><g/><clipPath id="ac4d01cbfc"><path d="M 52.203125 112.230469 L 566 112.230469 L 566 665.835938 L 52.203125 665.835938 Z M 52.203125 112.230469 " clip-rule="nonzero"/></clipPath><clipPath id="f926bdd646"><path d="M 0.300781 1 L 191 1 L 191 240 L 0.300781 240 Z M 0.300781 1 " clip-rule="nonzero"/></clipPath><clipPath id="b843a06339"><rect x="0" width="1260" y="0" height="281"/></clipPath></defs><g clip-path="url(#ac4d01cbfc)"><path fill="#7e9181" d="M 295.804688 662.949219 C 215.582031 623.210938 166.09375 585.703125 140.0625 544.917969 C 118.152344 510.558594 115.726562 476.953125 116.878906 448.152344 C 101.910156 445.65625 86.625 442.425781 71.402344 438.558594 L 52.242188 433.71875 L 116.820312 333.160156 C 107.382812 267.761719 85.039062 237.855469 84.8125 237.570312 L 74.871094 225.082031 L 88.558594 216.667969 C 151.589844 177.886719 181.386719 120.5 181.6875 119.921875 L 185.660156 112.121094 L 418.574219 112.121094 L 422.539062 119.910156 C 422.839844 120.488281 452.625 177.898438 515.679688 216.691406 L 529.4375 225.09375 L 519.328125 237.699219 C 519.160156 237.917969 498.269531 265.988281 488.332031 327.359375 L 510.589844 303.851562 C 513.960938 300.289062 518.71875 298.316406 523.976562 298.316406 C 527.253906 298.316406 530.757812 299.085938 534.382812 300.585938 C 539.691406 302.785156 545.453125 306.675781 550.582031 311.523438 C 555.730469 316.398438 559.933594 321.933594 562.40625 327.109375 C 568.839844 340.554688 562.539062 348.804688 560.449219 351.011719 L 499.855469 415.027344 C 517.144531 437.324219 521 453.804688 511.296875 464.058594 L 503.074219 472.738281 C 500.515625 475.476562 495.859375 478.765625 488.304688 478.765625 C 487.824219 478.765625 487.332031 478.753906 486.839844 478.71875 C 485.078125 498.671875 479.121094 526.980469 454.832031 558.148438 C 427.246094 593.566406 379.363281 627.84375 308.480469 662.949219 L 302.167969 666.070312 Z M 295.804688 662.949219 " fill-opacity="1" fill-rule="nonzero"/></g><path fill="#889baa" d="M 175.925781 523.320312 C 173.222656 528.265625 168.335938 537.714844 163.980469 548.675781 C 134.914062 511.832031 132.429688 477.109375 134.710938 439.628906 C 143.160156 440.757812 151.503906 441.667969 159.742188 442.316406 C 158.46875 463.542969 158.9375 480.542969 164.375 497.640625 C 161.363281 503.234375 158.816406 509.105469 156.570312 515.109375 L 155.359375 518.398438 L 158.816406 519.214844 Z M 407.960938 129.492188 L 196.273438 129.492188 C 190.742188 139.625 160.210938 191.921875 100.515625 229.679688 C 106.664062 238.695312 124.695312 269.265625 133.542969 327.625 L 153.355469 296.78125 C 148.585938 275.699219 142.308594 256.488281 134.613281 239.71875 L 133.582031 237.4375 L 135.574219 235.910156 C 174.0625 206.558594 198.507812 173.300781 209.625 156.074219 L 210.550781 154.644531 L 393.664062 154.644531 L 394.589844 156.074219 C 405.71875 173.289062 430.148438 206.558594 468.640625 235.910156 L 470.632812 237.4375 L 469.601562 239.71875 C 465.171875 249.429688 461.148438 260.03125 457.644531 271.316406 L 462.722656 272.53125 L 461.507812 275.84375 C 461.207031 276.648438 457.835938 285.664062 450.332031 299.183594 C 445.816406 319.808594 442.816406 342.175781 441.460938 365.695312 C 441.265625 368.816406 441.148438 371.988281 441.085938 375.300781 C 445.097656 377.941406 448.675781 380.558594 451.316406 382.585938 L 466.585938 366.453125 C 471.640625 282.519531 496.289062 240.558594 503.6875 229.703125 C 444.027344 191.921875 413.496094 139.625 407.960938 129.492188 Z M 407.960938 129.492188 " fill-opacity="1" fill-rule="nonzero"/><path fill="#38485f" d="M 454.015625 366.414062 C 452.839844 386.382812 454.304688 405.050781 455.710938 423.109375 C 458.519531 458.898438 460.957031 489.8125 442.742188 522.40625 C 422.933594 557.933594 379.292969 592.785156 309.324219 628.9375 L 302.105469 632.671875 L 294.890625 628.9375 C 224.921875 592.785156 181.292969 557.933594 161.46875 522.40625 C 143.257812 489.800781 145.695312 458.898438 148.492188 423.121094 C 149.921875 405.050781 151.386719 386.382812 150.207031 366.414062 C 146.714844 307.144531 133.582031 267.644531 123.183594 244.953125 L 118.058594 233.796875 L 151.277344 241.578125 L 219.710938 170.78125 L 203.5625 142.324219 L 203.71875 142.074219 L 400.507812 142.074219 L 400.769531 142.480469 L 390.242188 160.921875 L 462.867188 239.382812 L 486.011719 234.121094 L 481.03125 244.964844 C 470.644531 267.644531 457.5 307.144531 454.015625 366.414062 Z M 454.015625 366.414062 " fill-opacity="1" fill-rule="nonzero"/><path fill="#012130" d="M 219.722656 170.769531 L 151.289062 241.566406 L 118.070312 233.785156 L 117.949219 233.5 L 127.960938 225.875 C 148.539062 210.195312 164.953125 193.316406 177.304688 178.597656 L 189.503906 183.578125 L 183.082031 171.511719 C 184.507812 169.699219 185.878906 167.933594 187.1875 166.21875 L 193.585938 168.355469 L 191.304688 160.621094 C 194.414062 156.335938 197.007812 152.484375 199.109375 149.230469 L 203.585938 142.300781 Z M 476.277344 225.886719 C 439.347656 197.746094 415.863281 165.785156 405.140625 149.242188 L 400.769531 142.46875 L 390.242188 160.910156 L 462.867188 239.371094 L 486.011719 234.109375 L 486.277344 233.511719 Z M 476.277344 225.886719 " fill-opacity="1" fill-rule="nonzero"/><path fill="#edf2f8" d="M 448.433594 450.9375 L 390.820312 430.765625 C 390.109375 433.804688 389.222656 436.675781 388.273438 439.617188 C 387.554688 441.609375 386.90625 443.636719 386.050781 445.570312 C 385.246094 447.539062 384.457031 449.496094 383.519531 451.40625 C 380 459.089844 375.835938 466.472656 370.960938 473.351562 C 366.027344 480.171875 360.828125 486.796875 354.742188 492.597656 C 353.265625 494.074219 351.824219 495.585938 350.179688 496.90625 L 345.4375 500.988281 C 343.898438 502.382812 342.121094 503.535156 340.453125 504.769531 C 338.761719 505.996094 337.082031 507.21875 335.363281 508.386719 C 338.222656 505.335938 341.234375 502.515625 344.019531 499.476562 C 346.734375 496.367188 349.625 493.460938 352.160156 490.21875 L 356.0625 485.476562 L 359.722656 480.554688 C 360.996094 478.957031 362.113281 477.253906 363.242188 475.5625 C 364.359375 473.84375 365.582031 472.234375 366.601562 470.457031 L 369.75 465.234375 C 370.757812 463.460938 371.679688 461.660156 372.652344 459.882812 C 373.660156 458.105469 374.464844 456.253906 375.390625 454.441406 C 376.316406 452.628906 377.109375 450.769531 377.898438 448.90625 C 379.53125 445.199219 380.867188 441.378906 382.210938 437.574219 C 383.398438 433.972656 384.46875 430.203125 385.222656 426.671875 L 376.589844 394.210938 C 367.480469 414.425781 353.226562 432.316406 335.484375 445.617188 C 340.453125 438.714844 345.183594 430.453125 348.605469 422.675781 C 335.386719 437.597656 318.230469 449.328125 299.898438 457.179688 C 302.5625 452.402344 304.6875 446.832031 304.976562 441.355469 C 311.757812 436.480469 317.917969 430.300781 323.046875 423.707031 C 315.757812 429.398438 307.03125 434.679688 298.398438 438.257812 C 279.378906 453.878906 251.082031 474.433594 220.742188 487.109375 L 265.886719 521.820312 L 262.34375 539.492188 L 285.335938 547.367188 L 281.914062 636.332031 C 288.371094 639.753906 295.09375 643.199219 302.117188 646.703125 C 317.628906 638.984375 331.703125 631.445312 344.511719 624.0625 L 337.644531 600.914062 L 348.496094 609.523438 L 338.976562 589.234375 L 347.574219 581.238281 C 347.574219 546.191406 368.789062 526.214844 368.789062 526.214844 C 360.492188 541.894531 358.65625 557.574219 358.65625 557.574219 C 373.722656 519.753906 410.917969 487.542969 410.917969 487.542969 C 418.589844 479.199219 426.8125 471.371094 435.816406 464.527344 C 428.132812 472.8125 420.75 481.265625 413.691406 489.933594 C 406.628906 498.625 399.941406 507.59375 394.253906 517.113281 C 388.597656 526.632812 383.664062 536.636719 380.855469 547.105469 C 380.15625 549.769531 379.617188 552.253906 379.257812 554.992188 L 378.273438 563.347656 L 376.230469 580.074219 L 376.074219 581.261719 L 375.175781 582.042969 L 365.605469 590.492188 C 366.757812 593.710938 367.839844 596.941406 368.859375 600.195312 C 369.640625 602.703125 370.371094 605.25 371.082031 607.792969 C 451.183594 555.542969 467.199219 511.820312 469.792969 473.710938 C 459.816406 460.265625 450.390625 452.472656 448.433594 450.9375 Z M 330.429688 480.050781 C 328.195312 482.355469 325.9375 484.613281 323.5625 486.761719 C 317.691406 492.164062 311.160156 496.90625 304.328125 501.050781 C 302.585938 502.058594 300.859375 503.042969 299.09375 504.003906 C 297.304688 504.902344 295.46875 505.695312 293.65625 506.546875 L 290.917969 507.738281 C 289.992188 508.097656 289.042969 508.433594 288.085938 508.746094 C 286.1875 509.371094 284.300781 510.007812 282.394531 510.535156 C 284.015625 509.359375 285.660156 508.253906 287.292969 507.183594 L 289.753906 505.585938 L 292.128906 503.859375 C 293.714844 502.707031 295.347656 501.636719 296.910156 500.496094 C 298.433594 499.285156 299.992188 498.121094 301.542969 496.96875 C 306.140625 493.390625 310.691406 489.726562 315.085938 485.886719 C 314.570312 486.042969 314.054688 486.199219 313.523438 486.355469 C 307.808594 488.023438 302.011719 489.367188 296.164062 490.375 C 293.246094 490.832031 290.316406 491.359375 287.375 491.683594 L 282.980469 492.226562 L 278.550781 492.574219 C 275.609375 492.824219 272.644531 492.8125 269.703125 492.863281 C 266.75 492.824219 263.796875 492.644531 260.855469 492.417969 L 278.167969 489.453125 C 283.90625 488.480469 289.574219 487.265625 295.203125 485.886719 C 300.796875 484.410156 306.34375 482.800781 311.785156 480.914062 C 313.152344 480.449219 314.496094 479.96875 315.839844 479.4375 C 317.199219 478.945312 318.53125 478.429688 319.863281 477.902344 C 322.457031 476.84375 325.144531 475.667969 327.5 474.503906 C 330.40625 471.71875 333.285156 468.898438 336.132812 466.039062 C 341.628906 460.503906 347.007812 454.839844 352.484375 449.074219 C 349.15625 456.339844 344.691406 462.980469 339.828125 469.292969 C 336.910156 473.027344 333.753906 476.605469 330.453125 480.027344 L 330.464844 480.039062 C 330.476562 480.027344 330.453125 480.050781 330.429688 480.050781 Z M 429.65625 545.566406 C 420.101562 558.628906 405.214844 569.242188 389.570312 573.398438 C 399.90625 563.816406 410.675781 552.925781 418.433594 541.171875 C 411.625 545.398438 404.097656 548.414062 396.257812 550.128906 C 415.503906 537.066406 431.878906 519.839844 443.933594 499.957031 C 444.675781 516.128906 439.226562 532.527344 429.65625 545.566406 Z M 255.980469 539.347656 C 248.71875 536.550781 240.324219 535.832031 232.832031 537.5 C 232.269531 531.554688 231.8125 525.804688 231.25 519.851562 C 229.109375 525.207031 227.417969 531.414062 225.871094 536.984375 C 222.195312 527.425781 219.757812 517.148438 218.964844 506.957031 C 218.003906 510.449219 217.441406 514.171875 216.480469 517.652344 C 209.722656 514.484375 202.855469 512.503906 195.507812 511.242188 C 196.382812 505.226562 198.316406 498.914062 200.910156 493.414062 C 197.824219 496.824219 194.605469 500.6875 191.507812 504.097656 C 194.414062 493.964844 199.289062 484.398438 205.722656 476.054688 L 201.714844 473.808594 L 203.632812 470.976562 C 204.90625 469.101562 205.964844 467.050781 206.839844 464.925781 L 201.871094 457.445312 C 198.351562 461.046875 194.929688 464.863281 191.675781 468.742188 C 187.59375 473.617188 183.742188 478.671875 180.128906 483.867188 C 176.464844 489.054688 173.210938 494.496094 170.1875 500.042969 C 167.738281 504.554688 165.625 509.214844 163.761719 513.96875 L 203.09375 523.378906 L 204.992188 523.835938 L 205.4375 525.734375 L 208.808594 540.730469 C 213.648438 541.195312 218.390625 541.859375 223.144531 542.699219 C 228.644531 543.621094 234.117188 544.785156 239.53125 546.15625 C 244.933594 547.546875 250.3125 549.121094 255.558594 551.089844 C 260.78125 553.082031 265.886719 555.460938 270.617188 558.414062 C 265.273438 556.78125 259.976562 555.375 254.636719 554.105469 C 249.703125 553 244.765625 551.976562 239.785156 551.101562 C 239.375 559.207031 239.460938 567.335938 240.074219 575.425781 C 232.738281 572.363281 225.003906 568.773438 218.136719 564.777344 C 226.324219 576.636719 238.234375 586.617188 251.8125 591.441406 C 241.214844 592.199219 230 591.046875 220.300781 586.664062 C 227.5625 592.929688 236.027344 597.875 245.199219 600.648438 C 245.367188 606.183594 245.703125 611.394531 246.929688 616.628906 C 255.835938 622.019531 265.40625 627.484375 275.730469 633.066406 L 278.851562 551.808594 L 255.105469 543.683594 Z M 544.253906 330.554688 C 544.195312 330.457031 544.109375 330.363281 544.039062 330.253906 C 543.820312 329.953125 543.59375 329.652344 543.363281 329.339844 C 543.222656 329.171875 543.078125 328.992188 542.945312 328.824219 C 542.753906 328.585938 542.574219 328.355469 542.367188 328.105469 C 542.164062 327.851562 541.925781 327.601562 541.707031 327.347656 C 541.550781 327.15625 541.40625 326.988281 541.238281 326.808594 C 540.953125 326.496094 540.664062 326.183594 540.339844 325.847656 C 540.230469 325.738281 540.125 325.609375 539.992188 325.488281 C 539.546875 325.03125 539.089844 324.585938 538.621094 324.132812 C 532.042969 317.886719 526.171875 315.628906 523.964844 315.628906 C 523.601562 315.628906 523.339844 315.691406 523.183594 315.800781 C 522.488281 316.964844 524.742188 323.496094 532.390625 330.722656 C 539.980469 337.914062 546.605469 339.824219 547.808594 339.066406 C 548.261719 338.238281 547.339844 334.886719 544.253906 330.554688 Z M 518.609375 323.003906 C 518.320312 322.4375 518.105469 321.898438 517.902344 321.382812 L 511.910156 327.707031 C 511.992188 330.492188 512.523438 338.191406 515.777344 347.902344 C 519.136719 348.46875 527.21875 349.535156 538.023438 349.414062 L 542.488281 344.695312 C 537.757812 343.125 532.464844 339.5 528.046875 335.320312 C 523.878906 331.371094 520.53125 326.988281 518.609375 323.003906 Z M 523.589844 364.652344 L 532.128906 355.644531 C 526.390625 355.503906 521.695312 355.046875 518.367188 354.636719 C 519.773438 357.878906 521.503906 361.242188 523.589844 364.652344 Z M 492.375 348.347656 C 492.257812 352.523438 492.664062 369.046875 506.277344 382.960938 L 519.136719 369.382812 C 510.097656 355.25 507.082031 341.851562 506.097656 333.855469 Z M 486.335938 354.734375 L 471.546875 370.339844 C 478.160156 373.632812 486.851562 374.363281 492.316406 374.460938 C 488.390625 366.992188 486.878906 359.898438 486.335938 354.734375 Z M 493.550781 380.761719 C 490.238281 380.761719 485.414062 380.546875 480.335938 379.609375 C 481.460938 384.6875 484.007812 393.25 489.433594 400.742188 L 501.957031 387.523438 C 499.734375 385.289062 497.828125 382.996094 496.171875 380.703125 C 495.460938 380.738281 494.585938 380.761719 493.550781 380.761719 Z M 467.089844 375.058594 L 460.390625 382.132812 C 460.453125 385.804688 461.617188 399.265625 474.042969 416.996094 L 485.027344 405.386719 C 477.105469 394.988281 474.390625 382.753906 473.585938 377.917969 C 471.316406 377.171875 469.121094 376.238281 467.089844 375.058594 Z M 458.410156 408.867188 C 460.535156 410.863281 462.566406 412.445312 464.425781 413.695312 C 458.074219 402.925781 455.589844 394.042969 454.652344 388.183594 L 449.226562 393.921875 C 448.53125 395.085938 450.777344 401.628906 458.410156 408.867188 Z M 182.683594 443.503906 L 179.886719 443.445312 L 179.117188 434.910156 C 175.046875 434.765625 171.289062 434.25 168.9375 433.875 L 166.175781 440.070312 C 164.914062 459.367188 164.964844 474.949219 168.734375 490.003906 C 170.714844 486.691406 172.769531 483.449219 174.988281 480.304688 C 178.722656 474.914062 182.683594 469.714844 186.886719 464.695312 C 190.546875 460.335938 194.304688 456.160156 198.351562 452.089844 L 192.699219 443.589844 C 192.347656 443.589844 192 443.601562 191.640625 443.601562 C 188.6875 443.613281 185.699219 443.566406 182.683594 443.503906 Z M 408.441406 366.726562 C 409.019531 366.128906 409.667969 365.648438 410.375 365.261719 C 416.066406 362.226562 425.851562 366.175781 434.902344 371.421875 C 434.988281 369.34375 435.070312 367.304688 435.191406 365.300781 C 436.222656 347.78125 438.144531 330.890625 440.894531 314.851562 C 431.792969 328.847656 419.355469 345.238281 402.847656 361.648438 C 396.125 368.324219 388.464844 375.191406 379.855469 382 L 391.070312 424.199219 L 391.371094 424.308594 L 409.078125 405.578125 C 407.722656 403.683594 406.425781 401.796875 405.273438 399.972656 C 397.792969 388.050781 396.078125 379.800781 400.21875 375.433594 Z M 451.542969 269.839844 C 454.894531 259.046875 458.675781 248.804688 462.878906 239.371094 C 427.507812 211.984375 404.011719 181.921875 390.253906 160.921875 L 213.972656 160.921875 C 200.226562 181.933594 176.730469 211.972656 141.371094 239.382812 C 148.046875 254.375 153.65625 271.171875 158.097656 289.398438 L 208.113281 211.527344 Z M 451.542969 269.839844 " fill-opacity="1" fill-rule="nonzero"/><path fill="#889baa" d="M 185.636719 437.273438 C 292.945312 438.992188 360.394531 394.871094 398.214844 357.375 C 423.234375 332.558594 438.914062 307.347656 447.4375 291.164062 L 397.867188 282.109375 C 386.605469 304.5625 367.347656 318.597656 367.347656 318.597656 C 375.957031 305.882812 378.65625 286.214844 378.65625 286.214844 C 361.523438 322.535156 317.113281 348.597656 315.722656 349.414062 L 341.929688 342.378906 C 295.121094 375.863281 235.210938 385.839844 233.347656 386.140625 C 294.445312 361.15625 311.988281 305.078125 311.988281 305.078125 C 303.523438 319.207031 279.609375 334.898438 278.851562 335.390625 C 298.960938 312.84375 305.707031 282.53125 305.707031 282.53125 C 289.574219 317.792969 240.265625 337.457031 240.265625 337.457031 C 291.503906 284.582031 267.914062 232.320312 267.914062 232.320312 C 243.328125 263.105469 203.140625 266.609375 186.203125 266.609375 C 183.644531 266.609375 181.640625 266.527344 180.285156 266.453125 L 79.902344 422.796875 C 107.851562 429.664062 135.117188 434.152344 161.039062 436.132812 L 181.460938 390.296875 Z M 312.203125 388.757812 C 319.46875 385 326.71875 381.265625 333.621094 376.945312 C 337.140625 374.902344 340.550781 372.660156 343.996094 370.472656 C 347.34375 368.167969 350.753906 365.933594 354.007812 363.484375 C 360.636719 358.792969 367.035156 353.726562 373.195312 348.382812 C 379.414062 343.125 385.308594 337.492188 391.070312 331.730469 C 402.476562 320.0625 413.199219 307.597656 422.296875 293.816406 C 418.984375 301.402344 414.601562 308.488281 409.992188 315.402344 C 405.273438 322.234375 400.171875 328.824219 394.660156 335.054688 C 383.664062 347.542969 371.199219 358.804688 357.683594 368.578125 C 344.164062 378.347656 329.550781 386.609375 314.28125 393.210938 C 298.972656 399.742188 283.019531 404.679688 266.738281 407.558594 C 282.355469 402.144531 297.558594 396 312.203125 388.757812 Z M 185.375 313.675781 C 185.375 313.675781 208.222656 315.308594 227.070312 305.472656 C 227.070312 305.472656 206.671875 307.898438 191.53125 300.550781 C 191.53125 300.550781 231.824219 296.855469 258.191406 281.691406 C 258.191406 281.691406 238.882812 332.523438 166.222656 345.644531 Z M 413.507812 391.292969 C 410.148438 385.9375 407.960938 381.328125 406.941406 377.484375 L 404.804688 379.742188 C 403.640625 380.96875 404.242188 386.464844 410.617188 396.621094 C 416.929688 406.660156 426.933594 418.390625 438.792969 429.601562 C 446.875 437.25 455.109375 443.996094 462.828125 449.351562 L 466.300781 445.019531 L 466.300781 445.007812 C 458.472656 439.496094 450.332031 432.75 442.683594 425.507812 C 430.449219 413.910156 420.089844 401.761719 413.507812 391.292969 Z M 448.0625 406.636719 C 447.246094 405.554688 446.5 404.4375 445.839844 403.332031 C 445.828125 403.285156 445.804688 403.273438 445.804688 403.273438 C 442.695312 397.992188 441.589844 392.828125 444.652344 389.585938 L 446.957031 387.160156 C 426.859375 371.78125 414.960938 368.960938 413.003906 371.039062 C 411.839844 372.261719 412.441406 377.773438 418.816406 387.929688 C 425.121094 397.96875 435.132812 409.695312 446.992188 420.910156 C 448.507812 422.339844 449.984375 423.695312 451.4375 425.015625 C 462.3125 434.320312 477.8125 433.566406 477.8125 433.566406 C 463.597656 427.117188 452.589844 413.09375 448.0625 406.636719 Z M 381.851562 402.386719 C 380.492188 397.941406 378.679688 392.394531 376.074219 388.554688 C 358.355469 403.441406 336.265625 414.425781 314.246094 421.558594 C 303.871094 424.910156 298.804688 434.886719 289.609375 440.742188 C 290.222656 451.597656 288.492188 462.582031 284.589844 472.738281 C 301.195312 467.984375 315.925781 459.941406 328.628906 448.246094 C 326.046875 453.410156 323.117188 458.800781 320.535156 463.976562 C 347.632812 451.1875 368.738281 429.339844 381.851562 402.386719 Z M 345.136719 500.414062 C 357.320312 494.085938 368.738281 485.179688 377.492188 474.601562 C 375.125 481.371094 372.785156 487.890625 369.363281 494.183594 C 383.171875 481.839844 395.082031 465.777344 402.320312 448.726562 C 418.457031 450.289062 434.675781 451.082031 450.894531 451.105469 C 429.789062 443.300781 409.5 435.304688 388.394531 427.5 C 382.078125 455.8125 367.261719 481.671875 345.136719 500.414062 Z M 242.4375 486.617188 C 256.160156 496.308594 273.414062 499.859375 289.800781 496.175781 C 284.445312 503.691406 277.640625 510.332031 270.433594 516.105469 C 286.210938 516.824219 301.265625 511.6875 314.183594 502.597656 C 327.089844 493.511719 336.40625 480.027344 341.042969 464.9375 C 310.125 478.816406 276.332031 486.257812 242.4375 486.617188 Z M 259.019531 542.589844 C 258.921875 539.515625 257.984375 536.359375 257.890625 533.285156 C 241.945312 516.644531 225.425781 499.574219 209.480469 482.933594 C 208.714844 475.382812 207.847656 467.683594 208.976562 460.179688 C 206.300781 458.054688 203.023438 456.699219 200.34375 454.574219 C 196.660156 458.679688 193.597656 461.839844 190.824219 466.605469 C 184.796875 476.941406 179.972656 487.988281 176.476562 499.429688 C 181.554688 493.269531 186.660156 487.230469 192.660156 481.972656 C 188.902344 491.683594 186.226562 502.105469 184.628906 512.394531 C 195.398438 515.3125 206.3125 518.613281 216.589844 522.949219 C 219.160156 531.28125 221.007812 539.46875 223.578125 547.789062 C 226.542969 548.519531 228.738281 548.496094 231.703125 549.230469 C 236.796875 543.117188 243.792969 540.789062 251.597656 542.3125 C 251.789062 543.957031 251.503906 545.808594 251.695312 547.441406 C 262.019531 550.140625 272.007812 553.203125 282.117188 556.613281 C 282.152344 553.910156 281.3125 552.183594 280.570312 549.589844 C 273.460938 547.332031 266.125 544.835938 259.019531 542.589844 Z M 264.601562 595.042969 C 257.480469 591.238281 251.476562 586.039062 246.113281 580.011719 C 245.738281 570.179688 245.917969 560.324219 246.664062 550.515625 C 243.6875 550.164062 241.585938 548.929688 238.609375 548.582031 C 237.121094 551.882812 235.628906 555.855469 234.140625 559.15625 C 228.34375 558.1875 221.90625 557.320312 216.035156 556.902344 C 214.65625 565.027344 213.71875 573.839844 212.339844 581.96875 C 220.144531 600.832031 236.039062 616.28125 254.828125 624.253906 C 252.425781 616.113281 252.210938 607.242188 252.90625 598.777344 C 257.011719 598.847656 261.144531 597.300781 264.601562 595.042969 Z M 422.621094 476.460938 C 403.316406 487.976562 385.570312 503.449219 371.898438 521.292969 C 371.933594 519.117188 372.832031 517.03125 373.480469 514.964844 C 354.394531 528.085938 341.269531 550.488281 339.613281 573.601562 C 336.707031 576.253906 334.308594 578.511719 330.667969 580.023438 C 331.101562 585.390625 332.554688 590.890625 334.570312 595.894531 C 331.414062 594.226562 329.191406 592.460938 326.035156 590.792969 C 327.523438 605.175781 331.773438 619.273438 338.496094 632.070312 C 343.949219 627.339844 350.105469 622.992188 356.6875 620.003906 C 354.703125 607.53125 356.542969 594.695312 360.203125 582.617188 C 363.863281 570.539062 369.328125 559.085938 374.765625 547.691406 C 381.597656 533.371094 388.476562 518.960938 397.78125 506.117188 C 405.226562 495.828125 414.722656 486.402344 422.621094 476.460938 Z M 384.671875 550.296875 C 389.546875 552.902344 394.445312 554.414062 399.847656 553.261719 C 394.972656 562.761719 387.925781 571.453125 380.277344 578.894531 C 402.03125 576.015625 421.792969 566.601562 434.929688 549.039062 C 448.0625 531.472656 452.746094 509.921875 443.894531 489.847656 C 430.304688 514.988281 409.523438 536.191406 384.671875 550.296875 Z M 460.152344 412.988281 C 460.96875 414.34375 462.242188 415.855469 463.789062 415.53125 C 464.8125 415.328125 465.519531 414.332031 465.710938 413.3125 C 465.902344 412.289062 465.675781 411.234375 465.433594 410.226562 C 463.609375 402.710938 460.5625 395.542969 457.257812 388.542969 C 456.394531 386.71875 453.765625 383.332031 451.582031 385.734375 C 450.273438 387.175781 451.796875 390.945312 452.15625 392.515625 C 453.8125 399.757812 456.296875 406.625 460.152344 412.988281 Z M 466.273438 372.070312 C 465.21875 374.628906 462.746094 375.9375 460.417969 377.425781 C 463.464844 379.644531 466.921875 381.339844 470.550781 382.371094 C 471.726562 393.667969 475.988281 404.796875 483.613281 413.238281 C 485.496094 410.609375 486.503906 408.039062 488.402344 405.398438 C 482.277344 396.527344 478.195312 385.949219 476.875 375.253906 C 473.683594 373.570312 469.828125 372.585938 466.273438 372.070312 Z M 491.777344 378.144531 C 488.28125 378 484.777344 377.84375 481.28125 377.703125 C 480.550781 377.664062 479.769531 377.652344 479.144531 378.039062 C 478.59375 378.386719 478.269531 379.011719 478.113281 379.65625 C 477.523438 382.121094 479.289062 384.675781 481.570312 385.78125 C 483.851562 386.886719 486.503906 386.863281 489.027344 386.695312 C 491.621094 386.511719 498.210938 386.382812 498.871094 383.042969 C 499.589844 379.308594 494.273438 378.253906 491.777344 378.144531 Z M 488.785156 375.683594 C 490.058594 376.621094 492.027344 376.777344 493.109375 375.625 C 494.308594 374.339844 493.839844 372.273438 493.300781 370.605469 C 491.054688 363.679688 489.300781 356.234375 486.410156 349.570312 C 478.449219 353.460938 483.851562 365.707031 486.230469 371.769531 C 486.816406 373.234375 487.527344 374.746094 488.785156 375.683594 Z M 516.640625 364.53125 C 513.722656 351.792969 510.613281 340.304688 507.695312 327.566406 C 503.109375 331.035156 498.882812 334.972656 495.101562 339.320312 C 493.335938 341.347656 491.644531 343.496094 490.609375 345.980469 C 488.824219 350.28125 489.148438 355.226562 490.5625 359.65625 C 491.980469 364.085938 494.5625 368.828125 496.972656 372.816406 C 495.738281 364.878906 496.253906 356.714844 497.695312 348.804688 C 499.519531 355.5625 503.230469 361.816406 508.296875 366.644531 C 505.582031 359.523438 504.285156 351.851562 504.539062 344.230469 C 508.09375 351.277344 512.136719 358.058594 516.640625 364.53125 Z M 530.722656 352.96875 C 529.4375 352.453125 528.035156 352.355469 526.664062 352.261719 C 524.851562 352.140625 523.039062 352.019531 521.226562 351.902344 C 520.167969 351.828125 519.089844 351.769531 518.058594 352.058594 C 517.035156 352.34375 516.074219 353.066406 515.789062 354.085938 C 515.355469 355.621094 516.578125 357.160156 517.925781 358.023438 C 520.578125 359.714844 534.890625 361.878906 533.472656 355.851562 C 533.148438 354.507812 531.996094 353.484375 530.722656 352.96875 Z M 539.222656 338.875 C 530.578125 334.648438 523.183594 327.902344 518.1875 319.664062 C 517.839844 319.089844 514.492188 321.359375 514.214844 321.875 C 513.433594 323.316406 514.046875 324.203125 514.585938 325.726562 C 515.667969 328.8125 517.394531 331.765625 519.269531 334.421875 C 523.085938 339.796875 528.214844 344.265625 534.132812 347.207031 C 536.113281 348.191406 538.285156 349.019531 540.484375 348.71875 C 542.667969 348.417969 544.792969 346.628906 544.746094 344.421875 C 544.6875 341.660156 541.695312 340.074219 539.222656 338.875 Z M 532.105469 332.125 C 532.019531 329.664062 531.898438 326.964844 532.945312 324.660156 C 533.722656 322.929688 536.003906 321.441406 535.910156 319.386719 C 535.71875 315.523438 528.058594 313.253906 525.03125 312.472656 C 524.121094 312.234375 523.097656 312.054688 522.28125 312.519531 C 521 313.242188 520.925781 315.054688 521.167969 316.507812 C 522.234375 322.992188 526.375 328.898438 532.105469 332.125 Z M 532.105469 332.125 " fill-opacity="1" fill-rule="nonzero"/><path fill="#38485f" d="M 217.5625 442.664062 C 251.152344 440.277344 280.425781 433.347656 305.734375 423.792969 C 289.25 438.332031 258.152344 463.386719 223.816406 478.921875 L 210.644531 471.550781 C 216.253906 461.335938 217.359375 448.414062 217.5625 442.664062 Z M 448.914062 295.027344 C 450.101562 290.777344 451.125 287.214844 452.3125 282.960938 C 380.359375 259.648438 306.394531 239.25 232.726562 222.09375 C 217.058594 234.878906 200.679688 245.839844 182.746094 255.167969 C 179.324219 262 175.660156 269.167969 172.238281 275.988281 C 194.234375 279.167969 217.007812 276.769531 237.851562 269.058594 C 231.871094 275.675781 223.394531 280.308594 214.859375 282.890625 C 224.824219 283 234.8125 281.582031 244.394531 278.855469 C 223.851562 288.484375 201.078125 293.707031 178.398438 293.058594 C 182.253906 299.613281 187.078125 304.539062 194.304688 306.9375 C 189.035156 308.402344 182.132812 308.59375 177.101562 306.445312 C 168.746094 324.503906 156.691406 341.191406 144.769531 357.109375 C 178.9375 358.3125 214.621094 345.71875 239.941406 322.75 C 235.75 334.214844 228.03125 344.074219 218.558594 351.78125 C 240.085938 347.410156 261.105469 338.550781 278.78125 325.5 C 272.753906 332.320312 266.894531 339.304688 260.867188 346.125 C 270.496094 344.011719 279.308594 340.328125 287.84375 335.390625 C 267.792969 361.023438 238.402344 380.628906 207.140625 389.660156 C 264.023438 395.914062 324.113281 372.933594 362.710938 330.6875 C 358.34375 331.910156 352.878906 333.757812 348.507812 334.984375 C 352.746094 331.5625 357.371094 327.300781 361.609375 323.890625 C 362.160156 324.574219 362.414062 325.199219 362.964844 325.882812 C 378.511719 315.929688 392.175781 303.695312 403.496094 289.121094 C 405.25 289.519531 407.003906 289.878906 408.753906 290.226562 C 376.867188 338.957031 331.304688 378.648438 278.625 403.476562 C 338.605469 387.234375 391.753906 346.246094 422.875 292.472656 C 431.507812 293.601562 440.199219 294.320312 448.914062 295.027344 Z M 206.71875 431.714844 C 204.945312 425.976562 204.320312 420.226562 202.542969 414.488281 C 200.226562 419.542969 198.28125 424.632812 195.964844 429.6875 C 192.867188 409.589844 190.957031 389.527344 187.859375 369.441406 C 178.496094 385.386719 169.164062 401.4375 159.800781 417.378906 C 159.691406 409.457031 161.015625 400.957031 160.90625 393.03125 C 156.128906 401.039062 152.09375 408.050781 147.316406 416.058594 C 124.863281 420.933594 100.097656 423.144531 77.152344 421.894531 C 105.125 432.566406 133.027344 439.566406 162.972656 439.988281 C 164.449219 436.015625 166.285156 432.207031 167.75 428.234375 C 171.027344 428.101562 175.515625 428.59375 178.78125 428.460938 C 180.246094 432.171875 182.671875 436.519531 184.136719 440.226562 C 214.753906 439.855469 245.234375 435.496094 275.140625 428.917969 C 252.582031 432.878906 229.484375 434.238281 206.71875 431.714844 Z M 474.992188 427.035156 C 466.335938 420.105469 457.59375 413.09375 450.800781 404.34375 C 448.84375 401.820312 447.007812 399.035156 446.597656 395.867188 C 446.191406 392.695312 447.628906 389.09375 450.609375 387.941406 C 448.230469 385.648438 446.539062 383.800781 443.8125 381.9375 C 438.710938 385.324219 436.933594 392.3125 438.179688 398.304688 C 439.429688 404.292969 443.140625 409.480469 447.125 414.113281 C 450.8125 418.402344 454.832031 422.421875 459.132812 426.097656 C 452.566406 424.429688 446.117188 421.355469 441.253906 416.636719 C 444.027344 422.808594 447.953125 428.917969 453.296875 433.058594 C 451.449219 435.449219 448.949219 437.742188 447.101562 440.144531 C 454.160156 446.746094 461.027344 453.289062 468.089844 459.894531 C 474.234375 451.285156 480.296875 443.363281 486.457031 434.753906 C 482.542969 432.640625 478.484375 429.832031 474.992188 427.035156 Z M 474.992188 427.035156 " fill-opacity="1" fill-rule="nonzero"/><path fill="#7e9181" d="M 213.863281 439.421875 C 247.515625 437.429688 281.660156 431.175781 313.09375 418.988281 C 310.152344 425.699219 304.136719 430.503906 298.0625 434.609375 C 291.984375 438.703125 285.875 441.945312 281.179688 447.5625 C 268.898438 450.863281 255.835938 452.378906 243.339844 450 C 246.113281 452.59375 249.066406 455.28125 252.582031 456.722656 C 239.507812 456.796875 226.421875 453.003906 215.414062 445.941406 C 214.945312 443.660156 214.34375 441.679688 213.863281 439.421875 Z M 79.902344 422.796875 L 107.886719 394.210938 L 107.886719 407.546875 L 141.371094 348.777344 L 125.8125 364.601562 L 167.703125 286.085938 Z M 79.902344 422.796875 " fill-opacity="1" fill-rule="nonzero"/><path fill="#012130" d="M 553.460938 331.382812 C 551.492188 327.277344 548.046875 322.773438 543.761719 318.703125 C 539.488281 314.660156 534.804688 311.464844 530.578125 309.710938 C 523.125 306.613281 519.339844 308.96875 517.757812 310.636719 L 474.882812 355.921875 C 482.21875 269.480469 511.320312 231.867188 511.621094 231.492188 L 514.707031 227.652344 L 510.515625 225.082031 C 444.28125 184.335938 414.039062 124.964844 413.738281 124.363281 L 412.523438 121.976562 L 191.738281 121.976562 L 190.523438 124.363281 C 190.222656 124.964844 160.054688 184.285156 93.757812 225.070312 L 89.578125 227.640625 L 92.640625 231.480469 C 92.894531 231.792969 117.480469 263.523438 127.132812 335.40625 L 68.003906 427.476562 L 73.851562 428.953125 C 91.800781 433.503906 109.761719 437.140625 127.230469 439.746094 C 125.40625 469.34375 125.609375 503.800781 148.417969 539.566406 C 173.441406 578.777344 221.667969 615.152344 300.210938 654.050781 L 302.144531 655 L 304.074219 654.050781 C 373.601562 619.632812 420.363281 586.253906 447.019531 552.039062 C 472.636719 519.15625 476.996094 489.117188 477.632812 466.304688 C 486.359375 469.859375 492.414062 469.628906 495.882812 465.910156 L 504.09375 457.238281 C 512.691406 448.164062 497.226562 426.9375 486.683594 414.523438 L 553.246094 344.203125 C 554.820312 342.558594 556.945312 338.671875 553.460938 331.382812 Z M 500.289062 387.546875 L 489.566406 398.855469 C 485.484375 392.804688 483.191406 386.164062 481.90625 381.097656 C 486.492188 381.808594 490.695312 381.964844 493.539062 381.964844 C 494.296875 381.964844 494.980469 381.953125 495.570312 381.9375 C 497.023438 383.882812 498.59375 385.769531 500.289062 387.546875 Z M 473.574219 369.945312 L 485.460938 357.398438 C 486.109375 361.683594 487.488281 367.257812 490.335938 373.199219 C 485.796875 372.996094 479.109375 372.261719 473.574219 369.945312 Z M 377.191406 581.875 L 379.449219 563.492188 L 380.433594 555.148438 C 380.746094 552.769531 381.214844 550.453125 382.007812 547.417969 C 384.457031 538.28125 388.679688 528.84375 395.285156 517.726562 C 400.253906 509.394531 406.402344 500.808594 414.625 490.6875 C 421.457031 482.296875 428.878906 472.390625 436.703125 463.964844 C 436.703125 463.964844 418.480469 477.542969 410.074219 486.691406 C 408.597656 487.988281 378.476562 514.652344 361.96875 547.34375 C 363.46875 541.617188 365.929688 534.171875 369.84375 526.789062 L 373.230469 520.390625 L 367.960938 525.363281 C 367.742188 525.566406 346.589844 545.902344 346.371094 580.734375 L 337.511719 588.96875 L 345.230469 605.417969 L 335.398438 597.625 L 343.070312 623.507812 C 330.464844 630.761719 316.683594 638.109375 302.09375 645.371094 C 295.179688 641.914062 288.949219 638.722656 283.113281 635.636719 L 286.546875 546.527344 L 263.710938 538.710938 L 267.207031 521.351562 L 223.097656 487.433594 C 253.027344 474.566406 280.796875 454.273438 299.007812 439.316406 C 304.496094 437.023438 310.1875 433.984375 315.625 430.46875 C 312.011719 434.238281 308.171875 437.597656 304.269531 440.394531 L 303.800781 440.730469 L 303.777344 441.308594 C 303.464844 447.226562 300.929688 452.894531 298.851562 456.605469 L 297.136719 459.675781 L 300.378906 458.285156 C 317.125 451.105469 332.121094 441.105469 344.1875 429.109375 C 341.316406 434.621094 337.957031 440.132812 334.523438 444.910156 L 329.9375 451.285156 L 336.226562 446.566406 C 353.226562 433.804688 367.035156 416.960938 376.304688 397.703125 L 384.011719 426.683594 C 383.316406 429.890625 382.304688 433.515625 381.09375 437.167969 L 381.023438 437.359375 C 379.738281 441.019531 378.40625 444.800781 376.820312 448.414062 L 376.53125 449.101562 C 375.847656 450.683594 375.140625 452.328125 374.347656 453.878906 C 373.984375 454.574219 373.648438 455.269531 373.3125 455.980469 C 372.785156 457.070312 372.246094 458.210938 371.632812 459.292969 C 371.238281 460 370.863281 460.722656 370.480469 461.441406 C 369.902344 462.511719 369.339844 463.578125 368.75 464.613281 L 365.59375 469.847656 C 364.96875 470.9375 364.261719 471.972656 363.515625 473.050781 C 363.097656 473.664062 362.675781 474.277344 362.28125 474.890625 L 362.0625 475.199219 C 360.996094 476.808594 359.976562 478.335938 358.785156 479.835938 L 355.160156 484.710938 L 351.246094 489.476562 C 349.636719 491.539062 347.824219 493.523438 346.074219 495.429688 C 345.089844 496.5 344.105469 497.578125 343.167969 498.660156 C 341.691406 500.269531 340.105469 501.867188 338.570312 503.414062 C 337.234375 504.757812 335.855469 506.140625 334.523438 507.570312 L 327.117188 515.46875 L 336.070312 509.382812 C 337.621094 508.324219 339.167969 507.207031 340.667969 506.128906 L 341.210938 505.730469 C 341.691406 505.371094 342.171875 505.035156 342.664062 504.675781 C 343.875 503.8125 345.136719 502.910156 346.265625 501.890625 L 350.984375 497.832031 C 352.4375 496.65625 353.757812 495.335938 355.015625 494.0625 L 355.605469 493.460938 C 362.183594 487.195312 367.5625 480.136719 371.96875 474.035156 C 376.710938 467.335938 380.972656 459.882812 384.625 451.921875 C 385.558594 450 386.375 448.007812 387.167969 446.050781 C 387.804688 444.609375 388.320312 443.109375 388.824219 441.667969 C 389.019531 441.117188 389.210938 440.574219 389.425781 439.988281 C 390.207031 437.574219 391.011719 435.003906 391.683594 432.339844 L 447.859375 452.003906 C 449.949219 453.675781 458.941406 461.191406 468.554688 474.097656 C 466.058594 509.585938 452.398438 552.949219 371.789062 605.910156 C 371.238281 603.929688 370.636719 601.875 370 599.847656 C 369.074219 596.890625 368.089844 593.949219 367 590.878906 Z M 251.910156 592.617188 L 257.636719 592.210938 L 252.234375 590.289062 C 241.007812 586.304688 230.589844 578.65625 222.449219 568.511719 C 227.441406 571.152344 233.109375 573.792969 239.628906 576.519531 L 241.441406 577.273438 L 241.296875 575.316406 C 240.734375 567.875 240.613281 560.203125 240.949219 552.507812 C 245.03125 553.25 249.449219 554.152344 254.382812 555.257812 C 260.144531 556.625 265.355469 558.03125 270.292969 559.542969 L 277.289062 561.679688 L 274.625 631.0625 C 265.285156 625.984375 256.339844 620.867188 248.007812 615.835938 C 246.941406 611.070312 246.605469 606.28125 246.421875 600.578125 L 246.398438 599.714844 L 245.570312 599.460938 C 239.195312 597.539062 232.90625 594.429688 227.046875 590.347656 C 234.464844 592.488281 242.929688 593.265625 251.910156 592.617188 Z M 271.265625 557.382812 C 266.859375 554.621094 261.863281 552.195312 255.992188 549.949219 C 251.308594 548.195312 246.171875 546.613281 239.832031 544.980469 C 234.296875 543.585938 228.75 542.410156 223.359375 541.507812 C 218.726562 540.691406 214.285156 540.082031 209.804688 539.625 L 206.613281 525.46875 L 206 522.839844 L 165.40625 513.117188 C 167.257812 508.554688 169.179688 504.449219 171.253906 500.617188 C 174.628906 494.445312 177.859375 489.199219 181.136719 484.554688 C 184.773438 479.308594 188.640625 474.253906 192.613281 469.511719 C 195.640625 465.910156 198.6875 462.488281 201.714844 459.351562 L 205.496094 465.054688 C 204.644531 467.023438 203.695312 468.777344 202.648438 470.300781 L 199.996094 474.214844 L 203.945312 476.425781 C 197.835938 484.613281 193.152344 494.039062 190.355469 503.773438 L 188.941406 508.722656 L 192.398438 504.902344 C 193.957031 503.175781 195.578125 501.3125 197.152344 499.511719 C 195.84375 503.320312 194.871094 507.28125 194.316406 511.074219 L 194.148438 512.238281 L 195.300781 512.429688 C 202.949219 513.738281 209.710938 515.804688 215.976562 518.746094 L 217.261719 519.347656 L 217.632812 517.964844 C 217.980469 516.691406 218.28125 515.382812 218.558594 514.089844 C 219.722656 521.902344 221.824219 529.839844 224.730469 537.402344 L 226.039062 540.800781 L 227.152344 536.777344 C 228.164062 533.128906 229.265625 529.132812 230.527344 525.335938 C 230.625 526.464844 230.730469 527.59375 230.828125 528.722656 C 231.082031 531.675781 231.34375 534.617188 231.632812 537.609375 L 231.765625 538.964844 L 233.085938 538.664062 C 239.941406 537.140625 247.71875 537.679688 254.585938 540.117188 L 253.722656 544.460938 L 277.613281 552.640625 L 277.289062 561.140625 Z M 135.835938 440.996094 C 143.675781 442.027344 151.277344 442.84375 158.480469 443.421875 C 157.328125 463.433594 157.722656 480.386719 163.089844 497.519531 C 160.367188 502.621094 157.867188 508.242188 155.457031 514.699219 L 153.773438 519.25 L 174.136719 524.113281 C 171.589844 528.855469 167.484375 536.933594 163.65625 546.289062 C 137.566406 512.40625 133.542969 480.699219 135.835938 440.996094 Z M 407.253906 130.691406 C 413.59375 142.144531 443.894531 192.882812 502.015625 230.027344 C 493.839844 242.417969 470.40625 284.535156 465.433594 365.921875 L 451.207031 380.953125 C 449 379.285156 445.902344 377.015625 442.324219 374.640625 C 442.382812 371.613281 442.503906 368.695312 442.683594 365.742188 C 444.039062 342.464844 447.007812 320.207031 451.496094 299.589844 C 458.652344 286.671875 462.050781 277.882812 462.660156 276.238281 L 464.332031 271.652344 L 459.191406 270.429688 C 462.566406 259.71875 466.445312 249.550781 470.71875 240.199219 L 472.144531 237.050781 L 469.386719 234.953125 C 430.988281 205.667969 406.679688 172.542969 395.609375 155.414062 L 394.324219 153.429688 L 209.902344 153.429688 L 208.617188 155.414062 C 197.546875 172.542969 173.246094 205.667969 134.839844 234.953125 L 132.078125 237.050781 L 133.519531 240.210938 C 141.085938 256.695312 147.328125 275.652344 152.070312 296.554688 L 134.242188 324.3125 C 125.441406 269.300781 108.332031 239.34375 102.195312 230.039062 C 160.339844 192.894531 190.644531 142.15625 196.984375 130.703125 L 407.253906 130.703125 Z M 453.910156 390.714844 C 454.882812 395.410156 456.816406 401.773438 460.621094 409.242188 C 460.164062 408.832031 459.695312 408.425781 459.238281 407.992188 C 452.15625 401.269531 450.273438 395.734375 450.308594 394.519531 Z M 218.726562 443.78125 C 247.359375 441.65625 274.671875 436.074219 300.042969 427.140625 C 283.355469 441.390625 254.886719 463.433594 223.890625 477.578125 L 212.277344 471.070312 C 217.238281 461.308594 218.4375 449.472656 218.726562 443.78125 Z M 214.621094 162.125 L 389.605469 162.125 C 403.101562 182.617188 426.390625 212.476562 461.402344 239.753906 C 457.546875 248.519531 453.957031 258.160156 450.738281 268.421875 L 207.5625 210.148438 L 158.589844 286.398438 C 154.328125 269.480469 149.042969 253.800781 142.847656 239.753906 C 177.894531 212.417969 201.160156 182.582031 214.621094 162.125 Z M 438.804688 320.15625 C 436.523438 334.613281 434.917969 349.75 433.992188 365.226562 C 433.917969 366.609375 433.847656 368 433.789062 369.40625 C 422.8125 363.316406 414.757812 361.566406 409.8125 364.207031 C 408.996094 364.640625 408.25 365.203125 407.578125 365.886719 L 399.34375 374.589844 C 394.792969 379.394531 396.449219 388.144531 404.253906 400.597656 C 405.320312 402.300781 406.511719 404.019531 407.519531 405.457031 L 391.753906 422.136719 L 381.203125 382.445312 C 389.125 376.152344 396.675781 369.441406 403.675781 362.488281 C 416.738281 349.511719 428.527344 335.296875 438.804688 320.15625 Z M 167.351562 440.347656 L 169.65625 435.183594 C 172.585938 435.628906 175.398438 435.917969 178.015625 436.050781 L 178.78125 444.597656 L 182.648438 444.683594 C 185.121094 444.730469 188.375 444.789062 191.628906 444.789062 C 191.773438 444.789062 191.90625 444.789062 192.050781 444.789062 L 196.804688 451.933594 C 193.25 455.546875 189.695312 459.472656 185.949219 463.914062 C 181.785156 468.898438 177.761719 474.179688 173.992188 479.59375 C 172.417969 481.828125 170.847656 484.21875 169.214844 486.847656 C 166.128906 472.667969 166.222656 457.886719 167.351562 440.347656 Z M 462.601562 447.71875 C 455.132812 442.460938 447.210938 435.917969 439.621094 428.726562 C 427.867188 417.621094 417.941406 405.988281 411.636719 395.972656 C 405.082031 385.554688 405.285156 381.097656 405.683594 380.558594 L 406.402344 379.800781 C 407.613281 383.332031 409.65625 387.402344 412.5 391.929688 C 419.140625 402.503906 429.574219 414.738281 441.867188 426.371094 C 449.285156 433.398438 457.125 439.902344 464.582031 445.246094 Z M 180.945312 267.679688 C 182.589844 267.761719 184.367188 267.800781 186.238281 267.800781 C 202.457031 267.800781 242.425781 264.535156 267.578125 234.664062 C 269.113281 238.902344 272.535156 250.125 272.128906 265.144531 C 271.648438 282.855469 265.585938 309.628906 239.425781 336.617188 L 235.523438 340.652344 L 240.734375 338.574219 C 241.1875 338.394531 281.949219 321.851562 301.554688 292.421875 C 297.882812 303.179688 290.546875 320.503906 277.988281 334.589844 L 272.082031 341.203125 L 279.535156 336.390625 C 279.738281 336.257812 296.726562 325.210938 307.472656 313.097656 C 299.921875 329.605469 278.660156 366.320312 232.917969 385.023438 L 223.242188 388.988281 L 233.566406 387.328125 C 236.074219 386.921875 295.550781 377.054688 342.652344 343.363281 L 348.042969 339.511719 L 323.09375 346.210938 C 335.554688 337.949219 361.34375 318.859375 375.929688 293.984375 C 374.324219 300.78125 371.34375 310.601562 366.375 317.9375 L 362.519531 323.640625 L 368.078125 319.582031 C 368.269531 319.4375 387.230469 305.460938 398.550781 283.46875 L 445.625 292.0625 C 436.765625 308.59375 421.375 332.738281 397.386719 356.535156 C 359.953125 393.644531 293.078125 437.464844 186.753906 436.097656 L 182.277344 385.589844 L 160.292969 434.875 C 135.273438 432.917969 108.882812 428.59375 81.824219 422.027344 Z M 419.847656 387.304688 C 413.292969 376.871094 413.496094 372.417969 413.894531 371.878906 C 414.949219 370.847656 425 372.09375 445.179688 387.316406 L 443.800781 388.769531 C 440.667969 392.085938 441.003906 397.425781 444.75 403.824219 L 444.820312 403.96875 C 445.542969 405.171875 446.308594 406.324219 447.078125 407.34375 C 450.800781 412.664062 460.164062 424.800781 472.484375 432.136719 C 467.140625 431.546875 458.785156 429.722656 452.242188 424.140625 C 450.789062 422.832031 449.324219 421.488281 447.835938 420.070312 C 436.042969 408.90625 426.105469 397.269531 419.847656 387.304688 Z M 467.320312 376.5625 C 468.917969 377.425781 470.667969 378.179688 472.53125 378.828125 C 473.453125 383.980469 476.179688 395.3125 483.46875 405.289062 L 474.199219 415.085938 C 463.238281 398.941406 461.773438 386.679688 461.617188 382.585938 Z M 493.566406 348.828125 L 505.246094 336.484375 C 506.566406 344.9375 509.820312 356.761719 517.613281 369.226562 L 506.265625 381.207031 C 494.382812 368.433594 493.480469 353.761719 493.566406 348.828125 Z M 529.414062 356.761719 L 523.808594 362.683594 C 522.546875 360.519531 521.371094 358.3125 520.324219 356.078125 C 523.328125 356.402344 526.375 356.632812 529.414062 356.761719 Z M 524.289062 316.867188 C 526.304688 317.09375 531.648438 319.207031 537.84375 325.078125 C 538.273438 325.5 538.707031 325.90625 539.128906 326.351562 L 539.453125 326.6875 C 539.75 327.011719 540.050781 327.3125 540.363281 327.671875 C 540.496094 327.804688 540.605469 327.925781 540.785156 328.152344 L 541.011719 328.40625 C 541.15625 328.5625 541.289062 328.71875 541.421875 328.875 L 543.269531 331.261719 C 545.609375 334.550781 546.460938 336.941406 546.65625 338.035156 C 544.816406 337.816406 539.605469 335.957031 533.195312 329.882812 C 526.773438 323.808594 524.613281 318.667969 524.289062 316.867188 Z M 513.132812 328.175781 L 517.527344 323.53125 C 519.519531 327.683594 522.96875 332.175781 527.230469 336.195312 C 531.492188 340.230469 536.1875 343.4375 540.386719 345.1875 L 537.519531 348.226562 C 527.445312 348.300781 520.027344 347.375 516.699219 346.847656 C 513.867188 338.128906 513.253906 331.203125 513.132812 328.175781 Z M 314.761719 394.304688 C 330.226562 387.617188 344.90625 379.285156 358.390625 369.539062 C 372.101562 359.621094 384.597656 348.285156 395.5625 335.847656 C 400.953125 329.75 406.148438 323.097656 411 316.0625 C 415.152344 309.820312 419.367188 300.550781 422.898438 292.484375 C 422.898438 292.484375 403.015625 317.792969 390.242188 330.867188 C 383.496094 337.613281 377.839844 342.882812 372.425781 347.457031 C 366.160156 352.898438 359.734375 357.953125 353.300781 362.5 C 350.945312 364.277344 348.460938 365.972656 346.046875 367.605469 C 345.136719 368.214844 344.234375 368.839844 343.371094 369.441406 L 340.957031 370.976562 C 338.375 372.632812 335.710938 374.339844 333 375.914062 C 326.285156 380.113281 319.070312 383.847656 312.109375 387.449219 L 311.6875 387.667969 C 297.894531 394.484375 283.460938 401.75 266.75 407.535156 C 266.738281 407.546875 298.914062 401.078125 314.761719 394.304688 Z M 330.96875 481.214844 L 331.785156 480.375 C 335.171875 476.832031 338.136719 473.4375 340.8125 470.003906 L 340.8125 469.992188 C 346.578125 462.5 350.632812 455.992188 353.601562 449.53125 L 356.601562 442.976562 L 350.527344 449.363281 C 345.328125 454.839844 340.417969 460 335.304688 465.152344 C 332.433594 468.035156 329.589844 470.832031 326.828125 473.472656 C 324.691406 474.515625 322.144531 475.644531 319.445312 476.75 C 318.121094 477.277344 316.800781 477.792969 315.421875 478.285156 C 314.125 478.800781 312.792969 479.269531 311.421875 479.738281 C 306.609375 481.40625 301.363281 482.980469 294.953125 484.671875 C 289.007812 486.136719 283.460938 487.289062 278 488.226562 L 251.058594 492.847656 L 260.792969 493.582031 C 263.617188 493.796875 266.640625 493.988281 269.75 494.027344 L 271.433594 494.003906 C 273.808594 493.976562 276.257812 493.941406 278.671875 493.738281 L 283.148438 493.390625 L 287.53125 492.863281 C 289.742188 492.621094 291.949219 492.261719 294.097656 491.914062 C 294.855469 491.792969 295.613281 491.660156 296.390625 491.539062 C 300.941406 490.761719 305.539062 489.753906 310.113281 488.539062 C 307.328125 490.855469 304.292969 493.292969 300.847656 495.984375 C 299.320312 497.125 297.75 498.300781 296.210938 499.511719 C 295.371094 500.125 294.507812 500.726562 293.644531 501.324219 C 292.910156 501.828125 292.167969 502.347656 291.433594 502.875 L 289.117188 504.566406 L 286.644531 506.175781 C 285.070312 507.207031 283.378906 508.324219 281.695312 509.5625 L 276.28125 513.5 L 282.71875 511.6875 C 284.542969 511.171875 286.378906 510.570312 288.15625 509.980469 L 288.445312 509.886719 C 289.523438 509.527344 290.472656 509.191406 291.375 508.839844 L 294.136719 507.640625 C 294.757812 507.339844 295.382812 507.066406 296.019531 506.777344 C 297.21875 506.222656 298.421875 505.671875 299.632812 505.070312 C 301.398438 504.109375 303.140625 503.113281 304.917969 502.09375 C 312.15625 497.710938 318.6875 492.863281 324.328125 487.675781 C 326.429688 485.777344 328.53125 483.738281 330.96875 481.214844 Z M 259.304688 282.132812 L 260.507812 278.988281 L 257.589844 280.667969 C 231.765625 295.519531 191.820312 299.339844 191.425781 299.375 L 187.125 299.769531 L 191.015625 301.65625 C 201.125 306.554688 213.335938 307.214844 220.683594 307.070312 C 203.742188 313.6875 185.660156 312.507812 185.46875 312.496094 L 184.738281 312.449219 L 163.847656 347.328125 L 166.453125 346.859375 C 238.921875 333.746094 259.113281 282.652344 259.304688 282.132812 Z M 430.628906 546.277344 C 440.582031 532.710938 445.867188 515.804688 445.144531 499.898438 L 444.964844 495.960938 L 442.925781 499.332031 C 431.003906 519 414.636719 536.226562 395.609375 549.132812 L 390.457031 552.625 L 396.53125 551.292969 C 402.824219 549.925781 408.816406 547.753906 414.421875 544.835938 C 406.59375 555.496094 396.75 565.101562 388.765625 572.507812 L 385.234375 575.785156 L 389.894531 574.550781 C 405.464844 570.417969 420.699219 559.855469 430.628906 546.277344 Z M 430.628906 546.277344 " fill-opacity="1" fill-rule="nonzero"/><g fill="#7e9181" fill-opacity="1"><g transform="translate(216.446531, 206.499116)"><g><path d="M 9.546875 -7.140625 L 19.03125 -14.390625 L 20.125 -18.9375 L 27.453125 -17.203125 L 25.84375 -10.46875 L 21.203125 -6.96875 L 24.21875 -2.921875 L 22.265625 5.296875 L 14.78125 3.515625 L 16.734375 -4.703125 L 9.375 -6.453125 L 7.421875 1.765625 L 0 0 L 7.140625 -30.015625 L 14.5625 -28.25 Z M 9.546875 -7.140625 "/></g></g></g><g fill="#7e9181" fill-opacity="1"><g transform="translate(246.048792, 213.536387)"><g><path d="M 7.171875 -29.9375 L 14.703125 -28.15625 L 13.359375 -22.5 L 5.828125 -24.28125 Z M 5.390625 -22.4375 L 12.921875 -20.65625 L 7.5625 1.84375 L 0.03125 0.0625 Z M 5.390625 -22.4375 "/></g></g></g><g fill="#7e9181" fill-opacity="1"><g transform="translate(260.957616, 217.080624)"><g><path d="M 24.1875 -17.96875 L 22.40625 -10.5 L 11.046875 -13.15625 L 9.265625 -5.671875 L 20.609375 -2.96875 L 18.84375 4.484375 L 0 0 L 5.34375 -22.453125 Z M 24.1875 -17.96875 "/></g></g></g><g fill="#7e9181" fill-opacity="1"><g transform="translate(287.175674, 223.313377)"><g><path d="M 9.546875 -7.140625 L 19.03125 -14.390625 L 20.125 -18.9375 L 27.453125 -17.203125 L 25.84375 -10.46875 L 21.203125 -6.96875 L 24.21875 -2.921875 L 22.265625 5.296875 L 14.78125 3.515625 L 16.734375 -4.703125 L 9.375 -6.453125 L 7.421875 1.765625 L 0 0 L 7.140625 -30.015625 L 14.5625 -28.25 Z M 9.546875 -7.140625 "/></g></g></g><g fill="#7e9181" fill-opacity="1"><g transform="translate(316.777935, 230.350648)"><g><path d="M 12.796875 -20.6875 L 9.234375 -5.734375 L 16.765625 -3.9375 L 20.328125 -18.890625 L 27.75 -17.125 L 25.921875 -9.453125 L 9.65625 2.25 L -0.03125 -0.0625 L 5.296875 -22.46875 Z M 12.796875 -20.6875 "/></g></g></g><g fill="#7e9181" fill-opacity="1"><g transform="translate(346.508713, 237.418471)"><g><path d="M 0.046875 0.015625 L 5.390625 -22.46875 L 27.875 -17.125 L 25.734375 -8.09375 L 17.796875 -3.6875 L 24.3125 -2.140625 L 22.53125 5.359375 Z M 16.8125 -3.921875 L 18.578125 -11.359375 L 11.046875 -13.15625 L 9.28125 -5.71875 Z M 16.8125 -3.921875 "/></g></g></g><g fill="#7e9181" fill-opacity="1"><g transform="translate(376.453676, 244.537212)"><g><path d="M -0.015625 0.046875 L 5.34375 -22.453125 L 18.1875 -19.40625 L 16.390625 -11.890625 L 11.046875 -13.15625 L 7.484375 1.828125 Z M -0.015625 0.046875 "/></g></g></g><g fill="#7e9181" fill-opacity="1"><g transform="translate(396.63158, 249.334054)"><g><path d="M 8.21875 -5.96875 L 3.015625 -12.90625 L 5.3125 -22.546875 L 27.84375 -17.1875 L 26.0625 -9.6875 L 19.4375 -11.265625 L 24.78125 -4.296875 L 22.484375 5.34375 L -0.046875 -0.015625 L 1.734375 -7.515625 Z M 11.03125 -13.265625 L 9.234375 -5.734375 L 16.6875 -3.953125 L 18.484375 -11.484375 Z M 11.03125 -13.265625 "/></g></g></g><g fill="#7e9181" fill-opacity="1"><g transform="translate(426.448027, 256.422243)"><g><path d="M 0.046875 0.015625 L 5.390625 -22.46875 L 27.875 -17.125 L 25.734375 -8.09375 L 17.796875 -3.6875 L 24.3125 -2.140625 L 22.53125 5.359375 Z M 16.8125 -3.921875 L 18.578125 -11.359375 L 11.046875 -13.15625 L 9.28125 -5.71875 Z M 16.8125 -3.921875 "/></g></g></g><g transform="matrix(1, 0, 0, 1, 607, 241)"><g clip-path="url(#b843a06339)"><g clip-path="url(#f926bdd646)"><g fill="#7e9181" fill-opacity="1"><g transform="translate(26.457238, 213.247181)"><g><path d="M 26.402344 -93.632812 L 71.878906 -148.625 L 91.746094 -132.195312 L 65.964844 -132.195312 L 65.964844 -211.121094 L 162.734375 -211.121094 L 162.734375 -109.992188 L 134.648438 -75.886719 L 114.746094 -92.273438 L 131.070312 -112.226562 L 163.792969 -85.453125 L 163.792969 25.777344 L 65.964844 25.777344 L 65.964844 -73.238281 L 91.746094 -73.238281 L 91.746094 -47.457031 L 46.269531 -47.457031 L 46.269531 -73.238281 L 72.046875 -73.238281 L 72.046875 25.777344 L -25.777344 25.777344 L -25.777344 -211.121094 L 72.046875 -211.121094 L 72.046875 -77.203125 L 46.269531 -77.203125 Z M 20.492188 -5.578125 L 20.492188 -185.339844 L 46.269531 -185.339844 L 46.269531 -159.5625 L 0 -159.5625 L 0 -185.339844 L 25.777344 -185.339844 L 25.777344 0 L 0 0 L 0 -25.777344 L 46.269531 -25.777344 L 46.269531 0 L 20.492188 0 L 20.492188 -99.015625 L 117.523438 -99.015625 L 117.523438 0 L 91.746094 0 L 91.746094 -25.777344 L 138.015625 -25.777344 L 138.015625 0 L 112.234375 0 L 112.234375 -73.238281 L 138.015625 -73.238281 L 121.691406 -53.285156 L 78.40625 -88.699219 L 117.058594 -135.628906 L 136.957031 -119.242188 L 111.175781 -119.242188 L 111.175781 -185.339844 L 136.957031 -185.339844 L 136.957031 -159.5625 L 91.746094 -159.5625 L 91.746094 -185.339844 L 117.523438 -185.339844 L 117.523438 -122.917969 L 66.136719 -60.773438 Z M 20.492188 -5.578125 "/></g></g></g></g><g fill="#7e9181" fill-opacity="1"><g transform="translate(172.667122, 213.247181)"><g><path d="M -26.042969 -211.121094 L 72.046875 -211.121094 L 72.046875 25.777344 L -26.042969 25.777344 Z M -26.042969 -211.121094 "/></g></g></g><g fill="#7e9181" fill-opacity="1"><g transform="translate(226.867894, 213.247181)"><g><path d="M 150.835938 -185.074219 L 150.835938 -113.558594 L 46.003906 -113.558594 L 46.003906 -139.335938 L 71.785156 -139.335938 L 71.785156 -45.742188 L 46.003906 -45.742188 L 46.003906 -71.519531 L 150.835938 -71.519531 L 150.835938 25.777344 L -26.042969 25.777344 L -26.042969 -210.855469 L 150.835938 -210.855469 Z M 99.28125 -185.074219 L 125.058594 -185.074219 L 125.058594 -159.296875 L -0.265625 -159.296875 L -0.265625 -185.074219 L 25.515625 -185.074219 L 25.515625 0 L -0.265625 0 L -0.265625 -25.777344 L 125.058594 -25.777344 L 125.058594 0 L 99.28125 0 L 99.28125 -45.742188 L 125.058594 -45.742188 L 125.058594 -19.960938 L 20.226562 -19.960938 L 20.226562 -165.113281 L 125.058594 -165.113281 L 125.058594 -139.335938 L 99.28125 -139.335938 Z M 99.28125 -185.074219 "/></g></g></g><g fill="#7e9181" fill-opacity="1"><g transform="translate(359.858055, 213.247181)"><g><path d="M 26.402344 -93.632812 L 71.878906 -148.625 L 91.746094 -132.195312 L 65.964844 -132.195312 L 65.964844 -211.121094 L 162.734375 -211.121094 L 162.734375 -109.992188 L 134.648438 -75.886719 L 114.746094 -92.273438 L 131.070312 -112.226562 L 163.792969 -85.453125 L 163.792969 25.777344 L 65.964844 25.777344 L 65.964844 -73.238281 L 91.746094 -73.238281 L 91.746094 -47.457031 L 46.269531 -47.457031 L 46.269531 -73.238281 L 72.046875 -73.238281 L 72.046875 25.777344 L -25.777344 25.777344 L -25.777344 -211.121094 L 72.046875 -211.121094 L 72.046875 -77.203125 L 46.269531 -77.203125 Z M 20.492188 -5.578125 L 20.492188 -185.339844 L 46.269531 -185.339844 L 46.269531 -159.5625 L 0 -159.5625 L 0 -185.339844 L 25.777344 -185.339844 L 25.777344 0 L 0 0 L 0 -25.777344 L 46.269531 -25.777344 L 46.269531 0 L 20.492188 0 L 20.492188 -99.015625 L 117.523438 -99.015625 L 117.523438 0 L 91.746094 0 L 91.746094 -25.777344 L 138.015625 -25.777344 L 138.015625 0 L 112.234375 0 L 112.234375 -73.238281 L 138.015625 -73.238281 L 121.691406 -53.285156 L 78.40625 -88.699219 L 117.058594 -135.628906 L 136.957031 -119.242188 L 111.175781 -119.242188 L 111.175781 -185.339844 L 136.957031 -185.339844 L 136.957031 -159.5625 L 91.746094 -159.5625 L 91.746094 -185.339844 L 117.523438 -185.339844 L 117.523438 -122.917969 L 66.136719 -60.773438 Z M 20.492188 -5.578125 "/></g></g></g><g fill="#7e9181" fill-opacity="1"><g transform="translate(506.067947, 213.247181)"><g><path d="M 72.046875 -185.339844 L 72.046875 -46.003906 L 46.269531 -46.003906 L 46.269531 -71.785156 L 93.332031 -71.785156 L 93.332031 -46.003906 L 67.550781 -46.003906 L 67.550781 -211.121094 L 164.851562 -211.121094 L 164.851562 -82.148438 L 71.8125 25.515625 L -25.777344 25.515625 L -25.777344 -211.121094 L 72.046875 -211.121094 Z M 20.492188 -185.339844 L 46.269531 -185.339844 L 46.269531 -159.5625 L 0 -159.5625 L 0 -185.339844 L 25.777344 -185.339844 L 25.777344 -0.265625 L 0 -0.265625 L 0 -26.042969 L 60.015625 -26.042969 L 60.015625 -0.265625 L 40.511719 -17.121094 L 119.566406 -108.601562 L 139.070312 -91.746094 L 113.292969 -91.746094 L 113.292969 -185.339844 L 139.070312 -185.339844 L 139.070312 -159.5625 L 93.332031 -159.5625 L 93.332031 -185.339844 L 119.109375 -185.339844 L 119.109375 -20.226562 L 20.492188 -20.226562 Z M 20.492188 -185.339844 "/></g></g></g><g fill="#7e9181" fill-opacity="1"><g transform="translate(652.806627, 213.247181)"><g><path d="M 136.691406 25.777344 L -25.515625 25.777344 L -25.515625 -76.910156 L 3.046875 -113.023438 L 23.265625 -97.03125 L 6.832031 -77.171875 L -25.515625 -103.941406 L -25.515625 -210.324219 L 162.46875 -210.324219 L 162.46875 -112.765625 L 46.269531 -112.765625 L 46.269531 -138.542969 L 72.046875 -138.542969 L 72.046875 -114.484375 L 46.269531 -114.484375 L 46.269531 -140.261719 L 146.605469 -140.261719 L 146.605469 -42.171875 L 46.269531 -42.171875 L 46.269531 -67.949219 L 72.046875 -67.949219 L 72.046875 -45.742188 L 46.269531 -45.742188 L 46.269531 -71.519531 L 162.46875 -71.519531 L 162.46875 25.777344 Z M 136.691406 -25.777344 L 136.691406 0 L 110.914062 0 L 110.914062 -45.742188 L 136.691406 -45.742188 L 136.691406 -19.960938 L 20.492188 -19.960938 L 20.492188 -93.726562 L 120.828125 -93.726562 L 120.828125 -67.949219 L 95.050781 -67.949219 L 95.050781 -114.484375 L 120.828125 -114.484375 L 120.828125 -88.703125 L 20.492188 -88.703125 L 20.492188 -164.320312 L 136.691406 -164.320312 L 136.691406 -138.542969 L 110.914062 -138.542969 L 110.914062 -184.546875 L 136.691406 -184.546875 L 136.691406 -158.769531 L 0.265625 -158.769531 L 0.265625 -184.546875 L 26.042969 -184.546875 L 26.042969 -116.070312 L 0.265625 -116.070312 L 16.699219 -135.929688 L 59.125 -100.816406 L 20.484375 -51.957031 L 0.265625 -67.949219 L 26.042969 -67.949219 L 26.042969 0 L 0.265625 0 L 0.265625 -25.777344 Z M 136.691406 -25.777344 "/></g></g></g><g fill="#7e9181" fill-opacity="1"><g transform="translate(797.694562, 213.247181)"><g><path d="M 153.9375 -62.691406 L 130.667969 -43.921875 L 114.484375 -63.984375 L 134.441406 -80.296875 L 162.734375 -45.679688 L 162.734375 25.515625 L 65.703125 25.515625 L 65.703125 -23.53125 L 91.480469 -23.53125 L 71.527344 -7.207031 L 26.316406 -62.464844 L 46.269531 -78.789062 L 72.046875 -78.789062 L 72.046875 25.515625 L -25.816406 25.515625 L -25.476562 -211.121094 L 163.527344 -211.121094 L 163.527344 -70.429688 Z M 121.5625 -102.816406 L 137.75 -82.753906 L 111.972656 -82.753906 L 111.972656 -185.339844 L 137.75 -185.339844 L 137.75 -159.5625 L 0.265625 -159.5625 L 0.265625 -185.339844 L 26.042969 -185.304688 L 25.777344 -0.226562 L 0 -0.265625 L 0 -26.042969 L 46.269531 -26.042969 L 46.269531 -0.265625 L 20.492188 -0.265625 L 20.492188 -151.007812 L 117.257812 -32.734375 L 117.257812 -0.265625 L 91.480469 -0.265625 L 91.480469 -26.042969 L 136.957031 -26.042969 L 136.957031 -0.265625 L 111.175781 -0.265625 L 111.175781 -36.488281 L 136.957031 -36.488281 L 116.996094 -20.171875 L 78.105469 -67.757812 Z M 91.480469 -113.292969 L 46.269531 -113.292969 L 46.269531 -139.070312 L 72.046875 -139.070312 L 72.046875 -82.753906 L 46.269531 -82.753906 L 46.269531 -108.535156 L 91.480469 -108.535156 L 91.480469 -82.753906 L 65.703125 -82.753906 L 65.703125 -139.070312 L 91.480469 -139.070312 Z M 117.257812 -164.851562 L 117.257812 -56.976562 L 20.492188 -56.976562 L 20.492188 -164.851562 Z M 117.257812 -164.851562 "/></g></g></g><g fill="#7e9181" fill-opacity="1"><g transform="translate(943.37572, 213.247181)"><g><path d="M 167.230469 -185.605469 L 167.230469 -113.292969 L 46.003906 -113.292969 L 46.003906 -139.070312 L 71.785156 -139.070312 L 71.785156 -53.273438 L 33.699219 -53.273438 L -26.042969 -115.476562 L -26.042969 -211.382812 L 167.230469 -211.382812 Z M 115.671875 -185.605469 L 141.449219 -185.605469 L 141.449219 -159.828125 L -0.265625 -159.828125 L -0.265625 -185.605469 L 25.515625 -185.605469 L 25.515625 -125.851562 L -0.265625 -125.851562 L 18.328125 -143.707031 L 63.273438 -96.910156 L 44.683594 -79.054688 L 44.683594 -104.832031 L 46.003906 -104.832031 L 46.003906 -79.054688 L 20.226562 -79.054688 L 20.226562 -164.851562 L 141.449219 -164.851562 L 141.449219 -139.070312 L 115.671875 -139.070312 Z M 68.875 -46.535156 L 68.875 -129.949219 L 106.261719 -129.949219 L 167.230469 -79.871094 L 167.230469 25.777344 L -26.042969 25.777344 L -26.042969 -72.3125 L 94.652344 -72.3125 L 94.652344 -46.535156 Z M 120.433594 -20.753906 L -0.265625 -20.753906 L -0.265625 -46.535156 L 25.515625 -46.535156 L 25.515625 0 L -0.265625 0 L -0.265625 -25.777344 L 141.449219 -25.777344 L 141.449219 0 L 115.671875 0 L 115.671875 -67.683594 L 141.449219 -67.683594 L 125.089844 -47.765625 L 80.671875 -84.25 L 97.03125 -104.171875 L 97.03125 -78.394531 L 94.652344 -78.394531 L 94.652344 -104.171875 L 120.433594 -104.171875 Z M 120.433594 -20.753906 "/></g></g></g><g fill="#7e9181" fill-opacity="1"><g transform="translate(1092.758321, 213.247181)"><g><path d="M 136.691406 25.777344 L -25.515625 25.777344 L -25.515625 -76.910156 L 3.046875 -113.023438 L 23.265625 -97.03125 L 6.832031 -77.171875 L -25.515625 -103.941406 L -25.515625 -210.324219 L 162.46875 -210.324219 L 162.46875 -112.765625 L 46.269531 -112.765625 L 46.269531 -138.542969 L 72.046875 -138.542969 L 72.046875 -114.484375 L 46.269531 -114.484375 L 46.269531 -140.261719 L 146.605469 -140.261719 L 146.605469 -42.171875 L 46.269531 -42.171875 L 46.269531 -67.949219 L 72.046875 -67.949219 L 72.046875 -45.742188 L 46.269531 -45.742188 L 46.269531 -71.519531 L 162.46875 -71.519531 L 162.46875 25.777344 Z M 136.691406 -25.777344 L 136.691406 0 L 110.914062 0 L 110.914062 -45.742188 L 136.691406 -45.742188 L 136.691406 -19.960938 L 20.492188 -19.960938 L 20.492188 -93.726562 L 120.828125 -93.726562 L 120.828125 -67.949219 L 95.050781 -67.949219 L 95.050781 -114.484375 L 120.828125 -114.484375 L 120.828125 -88.703125 L 20.492188 -88.703125 L 20.492188 -164.320312 L 136.691406 -164.320312 L 136.691406 -138.542969 L 110.914062 -138.542969 L 110.914062 -184.546875 L 136.691406 -184.546875 L 136.691406 -158.769531 L 0.265625 -158.769531 L 0.265625 -184.546875 L 26.042969 -184.546875 L 26.042969 -116.070312 L 0.265625 -116.070312 L 16.699219 -135.929688 L 59.125 -100.816406 L 20.484375 -51.957031 L 0.265625 -67.949219 L 26.042969 -67.949219 L 26.042969 0 L 0.265625 0 L 0.265625 -25.777344 Z M 136.691406 -25.777344 "/></g></g></g><g fill="#ffffff" fill-opacity="1"><g transform="translate(26.457238, 213.247181)"><g><path d="M 46.265625 -77.203125 L 91.75 -132.203125 L 91.75 -185.34375 L 136.953125 -185.34375 L 136.953125 -119.234375 L 114.75 -92.265625 L 138.015625 -73.234375 L 138.015625 0 L 91.75 0 L 91.75 -73.234375 L 46.265625 -73.234375 L 46.265625 0 L 0 0 L 0 -185.34375 L 46.265625 -185.34375 Z M 46.265625 -77.203125 "/></g></g></g><g fill="#ffffff" fill-opacity="1"><g transform="translate(172.667122, 213.247181)"><g><path d="M -0.265625 -185.34375 L 46.265625 -185.34375 L 46.265625 0 L -0.265625 0 Z M -0.265625 -185.34375 "/></g></g></g><g fill="#ffffff" fill-opacity="1"><g transform="translate(226.867894, 213.247181)"><g><path d="M 125.0625 -185.078125 L 125.0625 -139.328125 L 46 -139.328125 L 46 -45.734375 L 125.0625 -45.734375 L 125.0625 0 L -0.265625 0 L -0.265625 -185.078125 Z M 125.0625 -185.078125 "/></g></g></g><g fill="#ffffff" fill-opacity="1"><g transform="translate(359.858055, 213.247181)"><g><path d="M 46.265625 -77.203125 L 91.75 -132.203125 L 91.75 -185.34375 L 136.953125 -185.34375 L 136.953125 -119.234375 L 114.75 -92.265625 L 138.015625 -73.234375 L 138.015625 0 L 91.75 0 L 91.75 -73.234375 L 46.265625 -73.234375 L 46.265625 0 L 0 0 L 0 -185.34375 L 46.265625 -185.34375 Z M 46.265625 -77.203125 "/></g></g></g><g fill="#ffffff" fill-opacity="1"><g transform="translate(506.067947, 213.247181)"><g><path d="M 46.265625 -185.34375 L 46.265625 -46 L 93.328125 -46 L 93.328125 -185.34375 L 139.0625 -185.34375 L 139.0625 -91.75 L 60.015625 -0.265625 L 0 -0.265625 L 0 -185.34375 Z M 46.265625 -185.34375 "/></g></g></g><g fill="#ffffff" fill-opacity="1"><g transform="translate(652.806627, 213.247181)"><g><path d="M 136.6875 0 L 0.265625 0 L 0.265625 -67.953125 L 23.265625 -97.03125 L 0.265625 -116.0625 L 0.265625 -184.546875 L 136.6875 -184.546875 L 136.6875 -138.546875 L 46.265625 -138.546875 L 46.265625 -114.484375 L 120.828125 -114.484375 L 120.828125 -67.953125 L 46.265625 -67.953125 L 46.265625 -45.734375 L 136.6875 -45.734375 Z M 136.6875 0 "/></g></g></g><g fill="#ffffff" fill-opacity="1"><g transform="translate(797.694562, 213.247181)"><g><path d="M 137.75 -82.75 L 114.484375 -63.984375 L 136.953125 -36.484375 L 136.953125 -0.265625 L 91.484375 -0.265625 L 91.484375 -23.53125 L 46.265625 -78.78125 L 46.265625 -0.265625 L 0 -0.265625 L 0.265625 -185.34375 L 137.75 -185.34375 Z M 91.484375 -139.0625 L 46.265625 -139.0625 L 46.265625 -82.75 L 91.484375 -82.75 Z M 91.484375 -139.0625 "/></g></g></g><g fill="#ffffff" fill-opacity="1"><g transform="translate(943.37572, 213.247181)"><g><path d="M 141.453125 -185.609375 L 141.453125 -139.0625 L 46 -139.0625 L 46 -79.046875 L 44.6875 -79.046875 L -0.265625 -125.84375 L -0.265625 -185.609375 Z M 94.65625 -46.53125 L 94.65625 -104.171875 L 97.03125 -104.171875 L 141.453125 -67.6875 L 141.453125 0 L -0.265625 0 L -0.265625 -46.53125 Z M 94.65625 -46.53125 "/></g></g></g><g fill="#ffffff" fill-opacity="1"><g transform="translate(1092.758321, 213.247181)"><g><path d="M 136.6875 0 L 0.265625 0 L 0.265625 -67.953125 L 23.265625 -97.03125 L 0.265625 -116.0625 L 0.265625 -184.546875 L 136.6875 -184.546875 L 136.6875 -138.546875 L 46.265625 -138.546875 L 46.265625 -114.484375 L 120.828125 -114.484375 L 120.828125 -67.953125 L 46.265625 -67.953125 L 46.265625 -45.734375 L 136.6875 -45.734375 Z M 136.6875 0 "/></g></g></g></g></g></svg>