<svg width="500" height="500" viewBox="0 0 500 500" fill="none" xmlns="http://www.w3.org/2000/svg">
<mask id="mask0_2828_480" style="mask-type:luminance" maskUnits="userSpaceOnUse" x="101" y="126" width="302" height="264">
<path d="M101.635 126.396H402.588V389.344H101.635V126.396Z" fill="white"/>
</mask>
<g mask="url(#mask0_2828_480)">
<mask id="mask1_2828_480" style="mask-type:luminance" maskUnits="userSpaceOnUse" x="101" y="126" width="302" height="264">
<path d="M251.895 126.396L402.15 389.344H101.635L251.895 126.396Z" fill="white"/>
</mask>
<g mask="url(#mask1_2828_480)">
<mask id="mask2_2828_480" style="mask-type:luminance" maskUnits="userSpaceOnUse" x="101" y="125" width="302" height="266">
<path d="M402.665 125.333H101.332V390.667H402.665V125.333Z" fill="white"/>
</mask>
<g mask="url(#mask2_2828_480)">
<mask id="mask3_2828_480" style="mask-type:luminance" maskUnits="userSpaceOnUse" x="101" y="126" width="302" height="264">
<path d="M101.635 126.396H402.239V389.344H101.635V126.396Z" fill="white"/>
</mask>
<g mask="url(#mask3_2828_480)">
<mask id="mask4_2828_480" style="mask-type:luminance" maskUnits="userSpaceOnUse" x="101" y="126" width="302" height="264">
<path d="M251.895 126.396L402.15 389.344H101.635L251.895 126.396Z" fill="white"/>
</mask>
<g mask="url(#mask4_2828_480)">
<path d="M101.635 126.396H402.588V389.344H101.635V126.396Z" fill="url(#paint0_linear_2828_480)"/>
</g>
</g>
</g>
</g>
</g>
<mask id="mask5_2828_480" style="mask-type:luminance" maskUnits="userSpaceOnUse" x="101" y="50" width="302" height="263">
<path d="M101.635 50H402.588V312.948H101.635V50Z" fill="white"/>
</mask>
<g mask="url(#mask5_2828_480)">
<mask id="mask6_2828_480" style="mask-type:luminance" maskUnits="userSpaceOnUse" x="101" y="50" width="302" height="263">
<path d="M251.895 50L402.15 312.948H101.635L251.895 50Z" fill="white"/>
</mask>
<g mask="url(#mask6_2828_480)">
<mask id="mask7_2828_480" style="mask-type:luminance" maskUnits="userSpaceOnUse" x="101" y="49" width="302" height="265">
<path d="M402.665 49.3335H101.332V313.333H402.665V49.3335Z" fill="white"/>
</mask>
<g mask="url(#mask7_2828_480)">
<mask id="mask8_2828_480" style="mask-type:luminance" maskUnits="userSpaceOnUse" x="101" y="50" width="302" height="263">
<path d="M101.635 50H402.239V312.948H101.635V50Z" fill="white"/>
</mask>
<g mask="url(#mask8_2828_480)">
<mask id="mask9_2828_480" style="mask-type:luminance" maskUnits="userSpaceOnUse" x="101" y="50" width="302" height="263">
<path d="M251.895 50L402.15 312.948H101.635L251.895 50Z" fill="white"/>
</mask>
<g mask="url(#mask9_2828_480)">
<path d="M101.635 50H402.588V312.948H101.635V50Z" fill="url(#paint1_linear_2828_480)"/>
</g>
</g>
</g>
</g>
</g>
<mask id="mask10_2828_480" style="mask-type:luminance" maskUnits="userSpaceOnUse" x="164" y="126" width="176" height="154">
<path d="M164.604 126.396H339.437V279.146H164.604V126.396Z" fill="white"/>
</mask>
<g mask="url(#mask10_2828_480)">
<mask id="mask11_2828_480" style="mask-type:luminance" maskUnits="userSpaceOnUse" x="164" y="126" width="176" height="154">
<path d="M251.895 126.396L339.182 279.146H164.604L251.895 126.396Z" fill="white"/>
</mask>
<g mask="url(#mask11_2828_480)">
<mask id="mask12_2828_480" style="mask-type:luminance" maskUnits="userSpaceOnUse" x="164" y="125" width="176" height="155">
<path d="M340 125.333H164V280H340V125.333Z" fill="white"/>
</mask>
<g mask="url(#mask12_2828_480)">
<mask id="mask13_2828_480" style="mask-type:luminance" maskUnits="userSpaceOnUse" x="164" y="126" width="176" height="154">
<path d="M164.604 126.396H339.197V279.146H164.604V126.396Z" fill="white"/>
</mask>
<g mask="url(#mask13_2828_480)">
<mask id="mask14_2828_480" style="mask-type:luminance" maskUnits="userSpaceOnUse" x="164" y="126" width="176" height="154">
<path d="M251.895 126.396L339.182 279.146H164.604L251.895 126.396Z" fill="white"/>
</mask>
<g mask="url(#mask14_2828_480)">
<path d="M164.604 126.396H339.437V279.146H164.604V126.396Z" fill="white"/>
</g>
</g>
</g>
</g>
</g>
<mask id="mask15_2828_480" style="mask-type:luminance" maskUnits="userSpaceOnUse" x="136" y="257" width="231" height="56">
<path d="M136.9 257.87H366.885V312.948H136.9V257.87Z" fill="white"/>
</mask>
<g mask="url(#mask15_2828_480)">
<mask id="mask16_2828_480" style="mask-type:luminance" maskUnits="userSpaceOnUse" x="136" y="257" width="232" height="57">
<path d="M368 257.333H136V313.333H368V257.333Z" fill="white"/>
</mask>
<g mask="url(#mask16_2828_480)">
<mask id="mask17_2828_480" style="mask-type:luminance" maskUnits="userSpaceOnUse" x="136" y="257" width="231" height="56">
<path d="M136.9 257.87H366.885V312.948H136.9V257.87Z" fill="white"/>
</mask>
<g mask="url(#mask17_2828_480)">
<path d="M136.9 257.87H366.906V312.948H136.9V257.87Z" fill="url(#paint2_linear_2828_480)"/>
</g>
</g>
</g>
<mask id="mask18_2828_480" style="mask-type:luminance" maskUnits="userSpaceOnUse" x="1" y="226" width="498" height="114">
<path d="M498.667 226.667H1.33398V340H498.667V226.667Z" fill="white"/>
</mask>
<g mask="url(#mask18_2828_480)">
<path d="M25.2005 275.729L42.8828 254.348L52.1901 262.046H40.112V229.312H81.8411V271.416L70.4505 285.244L61.1276 277.567L68.7786 268.218L82.2526 279.244V325.515H40.112V284.968H52.1901V297.046H34.5078V284.968H46.5859V325.515H4.44531V229.312H46.5859V283.427H34.5078L25.2005 275.729ZM22.4349 316.984V241.39H34.5078V253.468H16.5234V241.39H28.6016V313.437H16.5234V301.359H34.5078V313.437H22.4349V272.89H64.263V313.437H52.1901V301.359H70.1745V313.437H58.0964V284.968H70.1745L62.5286 294.312L44.1068 279.244L60.4401 259.406L69.763 267.083H57.6849V241.39H69.763V253.468H52.1901V241.39H64.263V266.395L43.8151 291.119L22.4349 316.984Z" fill="url(#paint3_linear_2828_480)"/>
<path d="M61.1641 229.312H103.409V325.515H61.1641V229.312Z" fill="url(#paint4_linear_2828_480)"/>
<path d="M155.104 241.489V271.349H112.296V259.271H124.374V295.656H112.296V283.578H155.104V325.515H82.2285V229.417H155.104V241.489ZM130.947 241.489H143.025V253.568H94.3066V241.489H106.385V313.437H94.3066V301.359H143.025V313.437H130.947V295.656H143.025V307.734H100.218V247.193H143.025V259.271H130.947V241.489Z" fill="url(#paint5_linear_2828_480)"/>
<path d="M154.773 275.729L172.455 254.348L181.762 262.046H169.684V229.312H211.413V271.416L200.023 285.244L190.7 277.567L198.351 268.218L211.825 279.244V325.515H169.684V284.968H181.762V297.046H164.08V284.968H176.158V325.515H134.018V229.312H176.158V283.427H164.08L154.773 275.729ZM152.007 316.984V241.39H164.08V253.468H146.096V241.39H158.174V313.437H146.096V301.359H164.08V313.437H152.007V272.89H193.835V313.437H181.762V301.359H199.747V313.437H187.669V284.968H199.747L192.101 294.312L173.679 279.244L190.012 259.406L199.335 267.083H187.257V241.39H199.335V253.468H181.762V241.39H193.835V266.395L173.387 291.119L152.007 316.984Z" fill="url(#paint6_linear_2828_480)"/>
<path d="M232.98 241.39V295.552H220.902V283.473H239.199V295.552H227.121V229.312H269.059V282.27L231.772 325.411H190.84V229.312H232.98V241.39ZM208.829 241.39H220.902V253.468H202.918V241.39H214.996V313.333H202.918V301.255H226.251V313.333L217.111 305.437L247.84 269.875L256.98 277.77H244.902V241.39H256.98V253.468H239.199V241.39H251.277V307.63H208.829V241.39Z" fill="url(#paint7_linear_2828_480)"/>
<path d="M313.082 325.515H247.973V282.823L259.52 268.224L268.993 275.719L261.29 285.021L247.973 274V229.62H325.16V271.656H277.931V259.583H290.009V268.932H277.931V256.854H318.993V299.099H277.931V287.021H290.009V295.656H277.931V283.578H325.16V325.515H313.082ZM313.082 301.359V313.437H301.004V295.656H313.082V307.734H265.858V274.948H306.915V287.021H294.837V268.932H306.915V281.01H265.858V247.505H313.082V259.583H301.004V241.698H313.082V253.776H260.051V241.698H272.129V268.318H260.051L267.749 259.01L285.79 273.943L269.525 294.515L260.051 287.021H272.129V313.437H260.051V301.359H313.082Z" fill="url(#paint8_linear_2828_480)"/>
<path d="M377.386 290.666L368.344 297.963L360.761 288.562L370.11 280.921L381.574 294.947V325.411H339.74V304.291H351.818L342.469 311.937L324.896 290.458L334.24 282.807H346.318V325.411H304.162L304.298 229.312H381.881V287.041L377.386 290.666ZM362.219 271.869L369.803 281.265H357.725V241.39H369.803V253.468H316.36V241.39L328.438 241.406L328.334 313.354L316.256 313.333V301.255H334.24V313.333H322.167V248.973L363.896 299.979V313.333H351.818V301.255H369.495V313.333H357.417V299.255H369.495L360.146 306.895L343.714 286.796L362.219 271.869ZM351.818 271.453H334.24V259.375H346.318V281.265H334.24V269.187H351.818V281.265H339.74V259.375H351.818V271.453ZM363.896 247.296V293.343H322.167V247.296H363.896Z" fill="url(#paint9_linear_2828_480)"/>
<path d="M439.936 241.286V271.453H390.759V259.375H402.837V294.781H385.098L360.691 269.375V229.208H439.936V241.286ZM415.785 241.286H427.863V253.364H372.77V241.286H384.848V264.515H372.77L381.483 256.146L398.952 274.338L390.243 282.708V270.63H390.759V282.708H378.681V247.297H427.863V259.375H415.785V241.286ZM397.592 295.349V260.864H414.921L439.936 281.416V325.515H360.691V283.271H409.671V295.349H397.592ZM421.749 307.427H372.77V295.349H384.848V313.437H372.77V301.359H427.863V313.437H415.785V287.125H427.863L420.197 296.458L402.926 282.276L410.592 272.942V285.021H409.671V272.942H421.749V307.427Z" fill="url(#paint10_linear_2828_480)"/>
<path d="M484.064 325.515H418.955V282.823L430.502 268.224L439.976 275.719L432.273 285.021L418.955 274V229.62H496.143V271.656H448.913V259.583H460.992V268.932H448.913V256.854H489.976V299.099H448.913V287.021H460.992V295.656H448.913V283.578H496.143V325.515H484.064ZM484.064 301.359V313.437H471.986V295.656H484.064V307.734H436.84V274.948H477.898V287.021H465.82V268.932H477.898V281.01H436.84V247.505H484.064V259.583H471.986V241.698H484.064V253.776H431.033V241.698H443.111V268.318H431.033L438.731 259.01L456.773 273.943L440.507 294.515L431.033 287.021H443.111V313.437H431.033V301.359H484.064Z" fill="url(#paint11_linear_2828_480)"/>
<path d="M34.5026 283.437L52.1901 262.062V241.396H69.7526V267.083L61.1276 277.562L70.1693 284.979V313.437H52.1901V284.979H34.5026V313.437H16.5234V241.396H34.5026V283.437Z" fill="white"/>
<path d="M73.2422 241.396H91.3255V313.437H73.2422V241.396Z" fill="white"/>
<path d="M143.015 241.5V259.27H112.286V295.666H143.015V313.437H94.3066V241.5H143.015Z" fill="white"/>
<path d="M164.075 283.437L181.762 262.062V241.396H199.325V267.083L190.7 277.562L199.742 284.979V313.437H181.762V284.979H164.075V313.437H146.096V241.396H164.075V283.437Z" fill="white"/>
<path d="M220.897 241.396V295.562H239.189V241.396H256.98V277.771L226.251 313.333H202.918V241.396H220.897Z" fill="white"/>
<path d="M313.072 313.437H260.051V287.021L268.988 275.729L260.051 268.312V241.708H313.072V259.583H277.926V268.937H306.905V287.021H277.926V295.666H313.072V313.437Z" fill="white"/>
<path d="M369.798 281.271L360.756 288.562L369.485 299.25V313.333H351.818V304.291L334.235 282.812V313.333H316.256L316.36 241.396H369.798V281.271ZM351.818 259.375H334.235V281.271H351.818V259.375Z" fill="white"/>
<path d="M427.853 241.292V259.375H390.749V282.708H390.249L372.77 264.521V241.292H427.853ZM409.665 295.354V272.937H410.582L427.853 287.125V313.437H372.77V295.354H409.665Z" fill="white"/>
<path d="M484.054 313.437H431.033V287.021L439.971 275.729L431.033 268.312V241.708H484.054V259.583H448.908V268.937H477.887V287.021H448.908V295.666H484.054V313.437Z" fill="white"/>
</g>
<mask id="mask19_2828_480" style="mask-type:luminance" maskUnits="userSpaceOnUse" x="137" y="341" width="242" height="46">
<path d="M378.667 341.333H137.334V386.667H378.667V341.333Z" fill="white"/>
</mask>
<g mask="url(#mask19_2828_480)">
<path d="M146.707 351.449H139.02V343.761H162.04V351.449H154.353V374.47H146.707V351.449Z" fill="white"/>
<path d="M198.469 343.657V351.407H182.615V361.366H182.386L174.928 353.595V343.657H198.469ZM190.699 366.782V357.199H191.094L198.469 363.261V374.511H174.928V366.782H190.699Z" fill="white"/>
<path d="M219.09 343.761V357.074H226.819V343.761H234.507V374.511H226.819V358.157L219.09 365.72V374.511H211.402V343.761H219.09Z" fill="white"/>
<path d="M247.484 343.72H255.214V374.511H247.484V343.72Z" fill="white"/>
<path d="M291.035 360.761L287.16 363.886L290.889 368.449V374.47H283.347V370.595L275.826 361.428V374.47H268.139L268.18 343.72H291.035V360.761ZM283.347 351.407H275.826V360.761H283.347V351.407Z" fill="white"/>
<path d="M311.643 351.449H303.955V343.761H326.976V351.449H319.288V374.47H311.643V351.449Z" fill="white"/>
<path d="M363.405 343.657V351.407H347.551V361.366H347.322L339.863 353.595V343.657H363.405ZM355.634 366.782V357.199H356.03L363.405 363.261V374.511H339.863V366.782H355.634Z" fill="white"/>
</g>
<defs>
<linearGradient id="paint0_linear_2828_480" x1="252.111" y1="126.396" x2="252.111" y2="389.344" gradientUnits="userSpaceOnUse">
<stop stop-color="#AA54F3"/>
<stop offset="1" stop-color="#E8489D"/>
</linearGradient>
<linearGradient id="paint1_linear_2828_480" x1="252.111" y1="50" x2="252.111" y2="312.948" gradientUnits="userSpaceOnUse">
<stop stop-color="#AA54F3"/>
<stop offset="1" stop-color="#E8489D"/>
</linearGradient>
<linearGradient id="paint2_linear_2828_480" x1="251.903" y1="257.87" x2="251.903" y2="312.948" gradientUnits="userSpaceOnUse">
<stop stop-color="#AA54F3"/>
<stop offset="1" stop-color="#E8489D"/>
</linearGradient>
<linearGradient id="paint3_linear_2828_480" x1="43.349" y1="229.312" x2="43.349" y2="325.515" gradientUnits="userSpaceOnUse">
<stop stop-color="#AA54F3"/>
<stop offset="1" stop-color="#E8489D"/>
</linearGradient>
<linearGradient id="paint4_linear_2828_480" x1="82.2865" y1="229.312" x2="82.2865" y2="325.515" gradientUnits="userSpaceOnUse">
<stop stop-color="#AA54F3"/>
<stop offset="1" stop-color="#E8489D"/>
</linearGradient>
<linearGradient id="paint5_linear_2828_480" x1="118.666" y1="229.417" x2="118.666" y2="325.515" gradientUnits="userSpaceOnUse">
<stop stop-color="#AA54F3"/>
<stop offset="1" stop-color="#E8489D"/>
</linearGradient>
<linearGradient id="paint6_linear_2828_480" x1="172.921" y1="229.312" x2="172.921" y2="325.515" gradientUnits="userSpaceOnUse">
<stop stop-color="#AA54F3"/>
<stop offset="1" stop-color="#E8489D"/>
</linearGradient>
<linearGradient id="paint7_linear_2828_480" x1="229.949" y1="229.312" x2="229.949" y2="325.411" gradientUnits="userSpaceOnUse">
<stop stop-color="#AA54F3"/>
<stop offset="1" stop-color="#E8489D"/>
</linearGradient>
<linearGradient id="paint8_linear_2828_480" x1="286.566" y1="229.62" x2="286.566" y2="325.515" gradientUnits="userSpaceOnUse">
<stop stop-color="#AA54F3"/>
<stop offset="1" stop-color="#E8489D"/>
</linearGradient>
<linearGradient id="paint9_linear_2828_480" x1="343.021" y1="229.312" x2="343.021" y2="325.411" gradientUnits="userSpaceOnUse">
<stop stop-color="#AA54F3"/>
<stop offset="1" stop-color="#E8489D"/>
</linearGradient>
<linearGradient id="paint10_linear_2828_480" x1="400.314" y1="229.208" x2="400.314" y2="325.515" gradientUnits="userSpaceOnUse">
<stop stop-color="#AA54F3"/>
<stop offset="1" stop-color="#E8489D"/>
</linearGradient>
<linearGradient id="paint11_linear_2828_480" x1="457.549" y1="229.62" x2="457.549" y2="325.515" gradientUnits="userSpaceOnUse">
<stop stop-color="#AA54F3"/>
<stop offset="1" stop-color="#E8489D"/>
</linearGradient>
</defs>
</svg>
